/* XPM */
static char *a108da0fd65942bfd00cf510d01f0eaesVjkXGeSXhhJFeEf[] = {
/* columns rows colors chars-per-pixel */
"32 32 63 1 ",
"  c None",
". c black",
"X c #2E1900",
"o c #3A2100",
"O c #402400",
"+ c #43380A",
"@ c #563100",
"# c #5E4200",
"$ c #53440C",
"% c #53450C",
"& c #724B00",
"* c #64520F",
"= c #725D05",
"- c #705C0F",
"; c #C00000",
": c red",
"> c #FF000D",
", c #885600",
"< c #986F00",
"1 c #816911",
"2 c #FF4300",
"3 c #A07878",
"4 c #A48300",
"5 c #A08115",
"6 c #AD8B15",
"7 c #BE9818",
"8 c #D38505",
"9 c #DBAF1B",
"0 c #DDAF19",
"q c #FFB505",
"w c #FFBC00",
"e c #EEC51E",
"r c #E9C522",
"t c #F9DD2A",
"y c #FAE033",
"u c #FAE035",
"i c #FAE339",
"p c #FBEA4A",
"a c #FFF94F",
"s c #1A00A2",
"d c #38719E",
"f c #3500F8",
"g c #3900FD",
"h c #86679E",
"j c #6998B9",
"k c #C09090",
"l c #E0C0A0",
"z c #FFD3AF",
"x c #98B7CC",
"c c #C1A3D7",
"v c #D0D0D0",
"b c gainsboro",
"n c #E4E4E4",
"m c #EAEAEA",
"M c #FFFFE5",
"N c #FCFFEF",
"B c gray94",
"V c #F9F9F9",
"C c gray98",
"Z c gray99",
"A c #FDFDFD",
"S c #FCFDFE",
"D c white",
/* pixels */
"           .....                ",
"           .8a8..               ",
"           .qMqvB.    >         ",
"          .B8a8vBv.  >  >       ",
"          .8l8lk8B.  2>  >2     ",
"         .3B;l:;vk3.> w2 2w>    ",
"          .klzl3lA. 2 w>        ",
"          .Cklk3bA. >2  dxAAAAx ",
"          .Amk3omA.  >w  dddj   ",
"         .,ACoo.AA@.   dxAAAAx  ",
"        .4@AC88.AA@,. >w dd     ",
"     ...4,@A8qq8.A4,@. >xASx.   ",
"  ...995,#,oqMaqo4,##4.  d .N.. ",
" .z3k=t9#@4o8aqo4,###,4.xA.Nnng.",
" .lk3+iu5#@4oq8o4,#@X#,..hNnggs.",
" .k3k+9u9@X,o8o4<#@X.NNNncggss. ",
"  ..t+6t9@.#4o4<,#@.gfffgsfz..  ",
"   .t++r9*.@,o,#@e5..sssszkl.   ",
"   .t%+r7*.5eppppe@..90r+3lk.   ",
"   .9*%97.@5eppe&#@O.*9u++9.    ",
"   .91*95.@&4o4#,&#@.*9t+%t.    ",
"   .9-*7*.#,4o4,<,&@..9t%*r.    ",
"    .975.@,<4o4<,<,@O.5r*1r.    ",
"     ....@<,4o4,<,<#@.*0%-0.    ",
"        .#,<4o4<,<,&@..500.     ",
"       .@&<,4o4,<,<,&@.......   ",
"        .#,<4o4<,<,<,.......... ",
"        .oo#4.4,&,#oo.......... ",
"        .88o......o88.........  ",
"       .aqq8...  .8qaq......    ",
"      .aqq8..     .8qa...       ",
"       ....        ....         "
};
