/* XPM */
static char *ab00c547f51244e6fe8933be994bcfb8O1lfaVbQynD8uTfj[] = {
/* columns rows colors chars-per-pixel */
"32 32 61 1 ",
"  c None",
". c black",
"X c #2E1900",
"o c #3A2100",
"O c #0E2138",
"+ c #402400",
"@ c #43380A",
"# c #563100",
"$ c #5E4200",
"% c #53440C",
"& c #53450C",
"* c #724B00",
"= c #64520F",
"- c #725D05",
"; c #705C0F",
": c #1A3751",
"> c #2A5877",
", c #C00000",
"< c red",
"1 c #885600",
"2 c #986F00",
"3 c #816911",
"4 c #A07878",
"5 c #A48300",
"6 c #A08115",
"7 c #AD8B15",
"8 c #BE9818",
"9 c #D38505",
"0 c #DBAF1B",
"q c #DDAF19",
"w c #FFB505",
"e c #EEC51E",
"r c #E9C522",
"t c #F9DD2A",
"y c #FAE033",
"u c #FAE035",
"i c #FAE339",
"p c #FBEA4A",
"a c #FFF94F",
"s c #1A00A2",
"d c #3500F8",
"f c #3900FD",
"g c #006DD6",
"h c #86679E",
"j c #009FFF",
"k c #C09090",
"l c #E0C0A0",
"z c #FFD3AF",
"x c #C1A3D7",
"c c #D0D0D0",
"v c gainsboro",
"b c #E4E4E4",
"n c #EAEAEA",
"m c #FFFFE5",
"M c #FCFFEF",
"N c gray94",
"B c #F9F9F9",
"V c gray98",
"C c gray99",
"Z c #FDFDFD",
"A c white",
/* pixels */
"           .....                ",
"           .9a9..               ",
"           .wmwcN.     j    g   ",
"          .N9a9cNc.      gj     ",
"          .9l9lk9N.   O: j    j ",
"         .4N,l<,ck4.j >:  O:  g ",
"          .klzl4lZ.jg    :>>:   ",
"          .Vklk4vZ.  jg  O::O   ",
"          .Znk4onZ.     O OO    ",
"         .1ZVoo.ZZ#.   O:O   :: ",
"        .5#ZV99.ZZ#1.  O>>:O O: ",
"     ...51#Z9ww9.Z51#. :>::O.   ",
"  ...0061$1owmawo51$$5. ::O.M.. ",
" .z4k-t0$#5o9awo51$$$15.OO.Mbbf.",
" .lk4@iu6$#5ow9o51$#X$1..hMbffs.",
" .k4k@0u0#X1o9o52$#X.MMMbxffss. ",
"  ..t@7t0#.$5o521$#.fdddfsdz..  ",
"   .t@@r0=.#1o1$#e6..sssszkl.   ",
"   .t&@r8=.6eppppe#..0qr@4lk.   ",
"   .0=&08.#6eppe*$#+.=0u@@0.    ",
"   .03=06.#*5o5$1*$#.=0t@&t.    ",
"   .0;=8=.$15o5121*#..0t&=r.    ",
"    .086.#125o52121#+.6r=3r.    ",
"     ....#215o51212$#.=q&;q.    ",
"        .$125o52121*#..6qq.     ",
"       .#*215o512121*#.......   ",
"        .$125o5212121.......... ",
"        .oo$5.51*1$oo.......... ",
"        .99o......o99.........  ",
"       .aww9...  .9waw......    ",
"      .aww9..     .9wa...       ",
"       ....        ....         "
};
