/* XPM */
static char *result[] = {
/* columns rows colors chars-per-pixel */
"32 32 18 1 ",
"  c black",
". c #140927",
"X c #261840",
"o c #3B2563",
"O c #E07000",
"+ c #96614C",
"@ c #FFC000",
"# c yellow",
"$ c #CA8F72",
"% c #E59575",
"& c #52338B",
"* c #61498D",
"= c #6E45B9",
"- c #9A7AD4",
"; c #8C59EB",
": c #FFB691",
"> c #FFD3AF",
", c None",
/* pixels */
",,,,,,,,,,,,,,,    ,,,,,,,,,,,,,",
",,,,,,,,,,,,,, ==oo  ,,,,,,,,,,,",
",,,,,,,,,,,,, =&&=;;o ,,,,,,,,,,",
",,,,,,,,,,,,, =&oX  #@ ,,,,,,,,,",
",,,,,,,,,,,, =&oX , @O ,,,,,,,,,",
",,,,,,,,,,,, =&&oX ,  ,,,,,,,,,,",
",,,,,,,,,,, =&&&&oX  = ,,,,,,,,,",
",,,,,,,,,,, ;;==&&oXX= ,,  ,,,,,",
",,,,,,,,,, ;==&&&oXX= ,, %+ ,,,,",
",,,,,,, , =&&&ooXXX== ,  %+ ,,,,",
",,,,,, = &&ooXXXX==  , ;-- ,,,,,",
",,,,,,, =;;;;;===  ,,  *;- ,,,,,",
",,,,,,,,     >$:$    XX*; ,,,,,,",
",,,,,,,, o;X >:XX  oo;oX* ,,,,,,",
",,,,,,, o;oX&XXo&ooXo&;oX ,,,,,,",
",,,,,,, ;oXX==@==oX*Xo&;X ,,,,,,",
",,,,,, ;oX*X=&X=&oXo*Xo&o ,,,,,,",
",,,,, ;*X*XoX&@&ooXXo*Xo& ,,,,,,",
",,,,, -*X o*XoXooXX XXXX ,,,,,,,",
",,,, :$;   XXXXXXXX     ,,,,,,,,",
",,,, :$  ;&oX;&&X&X ,,,,,,,,,,,,",
",,,,,  ;;&oXo..X;X&. ,,,,,,,,,,,",
",,,,, ;&&oXoX  .;X&X. ,,,,,,,,,,",
",,,,, ;&ooXoX.  =X&X. ,,,,,,,,,,",
",,,,,, ;&ooXoo. =X&Xo.   ,,,,,,,",
",,,,,,,  &&oXX& o=XoXo.    ,,,,,",
",,,,,,,    &&o&  =XoXo.      ,,,",
",,,,,,       Xo  &oXoX        ,,",
",,,,,        .;  X&&..  @      ,",
",,,,,       @;    ..&&..=     ,,",
",,,,,,              &&&=     ,,,",
",,,,,,,                    ,,,,,"
};
