/* XPM */
static char *f6d5a3e7427747a2e4ce7b0d155d1c92b3AkgnmzphvRKpMd[] = {
/* columns rows colors chars-per-pixel */
"32 32 15 1 ",
"  c None",
". c black",
"X c #491817",
"o c #6E2422",
"O c #A3302D",
"+ c #D9413D",
"@ c #965654",
"# c #96614C",
"$ c #E05F5C",
"% c #C96F6D",
"& c #D9AD14",
"* c #D9D714",
"= c #E59575",
"- c #EB9997",
"; c #EBB995",
/* pixels */
"                                ",
"                                ",
"               ....             ",
"              .++oo..           ",
"             .+OO+$$o.          ",
"             .+OoX..*&.         ",
"            .+OoX. .&*.         ",
"            .+OOoX. ..          ",
"           .+OOOOoX..+.         ",
"    ..     .$$++OOoXXX....      ",
"   .=#.   .$++OOOoXX+..@=#.     ",
"   .=#.. .+OOOooXXX+X..@=#.     ",
"    .o.+.OOooXXXX++...%oo.      ",
"    .o%.+$$$$$+++..  .%%o.      ",
"    .o%@.....;#=#. ..-%%.       ",
"     .@@.o@X.;=XX..o@@o@.       ",
"      ..o@oXOXXoOo@oo-@o.       ",
"       .-oXX++*++oX-@o-@.       ",
"       .-X@X+OX+OXXo-@X-.       ",
"        .@XoXO*OoX.Xo-X.        ",
"         .o@XoXoXX..Xo.         ",
"          .XXXXXXX........      ",
"    .     .XO%Oo@O@.........    ",
"   .*.    .-+-OX%O%......*...   ",
"  .$.   ..oo+-oX-+-oX.....$...  ",
"  .O. ..%%%%oo-o+-OOO-%...O...  ",
"  .OO.oO++++@XoX@+---++O.OO...  ",
"  .OOXoO%%%XX...XX++++-%XOX..   ",
" ..XOX%%oXX.......XXXXO+oXO..   ",
" ....XXXX.............X@%X..    ",
"  .....................oo..     ",
"    ......................      "
};
