/* XPM */
static char *_110953d2f0a4482a5ab4448b597d899hq0aVKEQ7f8s8nCg[] = {
/* columns rows colors chars-per-pixel */
"32 32 14 1 ",
"  c None",
". c black",
"X c #251E36",
"o c #3E2934",
"O c #400000",
"+ c #494949",
"@ c #766666",
"# c red",
"$ c #E43A37",
"% c #EA743C",
"& c #A14A48",
"* c #FCCB45",
"= c #FFFF80",
"- c white",
/* pixels */
"                  O             ",
"            =    O*OO           ",
"               O  O**O          ",
"              O=O O**O          ",
"              O==OO-**O       . ",
"               O=O*--*O      .o.",
"              O%=**=-=*O     .+.",
"            OO%====-==*O    .&o.",
"           O#***===--=*O   .+&o.",
"          O#*=*===---=*#.  .&+o.",
"         O#*%*==-=-=-=%#&..++oo.",
"         O#%*=-=-==-=*%#+o+&&oX.",
"         O#%====---=*%#&o+&&ooX.",
"        O#%*==---===%#&&+&&&ooX.",
"        O#*=-=--===*#&&o&&+ooo. ",
"       O#%*==--====*#&&%&+&X+o. ",
"       O#%*==-=-===**##&&&&.oo. ",
" .    O$#%*=--=-====%#&&&&X@+o. ",
".+..   O#%=*---==--=%%#&&&.+oX. ",
".o++...#%%%=------==*%#&&X@+o.  ",
".+&+&++&#$%%=-=---==*%$X.@+oo.  ",
".+X++&&&#X%$*------=*#.o++ooX.  ",
".o+X&&&&X+X%$*----=**+o+oooX..  ",
".oo+XX&&.o@.o%*=--*.+@+oooXX..  ",
" .ooooX...o@+...X.o+@+oooXX.... ",
" .XXo.XoXX.oo+ooXo+@+oooXoX..X..",
".X.XXX.XoXXXoo+ooX@@o++ooo.X....",
".X.XXoX.oo+oXXo@@@++@+ooXXoo.X..",
".XX.XXoXo+o+oooo@+o++oo+X.o.XX..",
".XooXoooXo+ooX+@+oooooXXXoXXX.. ",
" .Xoo+o++o@+ooXX@@+o+ooXoXXX..  ",
"  ..........................    "
};
