/* XPM */
static char *e1edd6c3307f4b43ab9c3cf8d3c7ef12tUcyowk8mx4Xqbb3[] = {
/* columns rows colors chars-per-pixel */
"32 32 14 1 ",
"  c None",
". c black",
"X c #251E36",
"o c #3E2934",
"O c #400000",
"+ c #494949",
"@ c #766666",
"# c red",
"$ c #E43A37",
"% c #EA743C",
"& c #A14A48",
"* c #FCCB45",
"= c #FFFF80",
"- c white",
/* pixels */
"             O                  ",
"           OO*O    =            ",
"          O**O  O               ",
"          O**O O=O              ",
"         O**-OO==O            . ",
"         O*--*O=O            .o.",
"        O*=-=**=%O           .+.",
"        O*==-====%OO        .&o.",
"        O*=--===***#O      .+&o.",
"        O*=---===*=*#O  .  .&+o.",
"       O#%=-=-=-==*%*#O.&..++oo.",
"       O#%*=-==-=-=*%#.++o++&oX.",
"        O#%*=---====%#+&o++&ooX.",
"         O#%===---==*%#&++&&ooX.",
"        O O#*===--=-=*#o&&+o+o. ",
"       O%OO#*====--==*%#&+&Xoo. ",
"        O##**===-=-==*%#+&&.+o. ",
" .       O#%====-=--=*%#$&X@oo. ",
".+..    O#%%=--==---*=%#&&.+oX. ",
".o++.....#%*==------=%%%#X@+o.  ",
".+&+&++&+$%*==---=-=%%$X.@+oo.  ",
".+X++&&&&X#*=------*$X.o++ooX.  ",
".o+X&&&&X+X**=----*$.+o+oooX..  ",
".oo+XX&&.o@.o*--=*..+@+oooXX..  ",
" .ooooX...o@+...X.o+@+oooXX.... ",
" .XXo.XoXX.oo+ooXo+@+oooXoX..X..",
".X.XXX.XoXXXoo+ooX@@o++ooo.X....",
".X.XXoX.oo+oXXo@@@++@+ooXXoo.X..",
".XX.XXoXo+o+oooo@+o++oo+X.o.XX..",
".XooXoooXo+ooX+@+oooooXXXoXXX.. ",
" .Xoo+o++o@+ooXX@@+o+ooXoXXX..  ",
"  ..........................    "
};
