/* XPM */
static char *_e447bccd5ac483ca04ad1205e8a7f87hesOdPei91yyAboK[] = {
/* columns rows colors chars-per-pixel */
"32 32 155 2 ",
"   c None",
".  c black",
"X  c #020000",
"o  c #030100",
"O  c #060100",
"+  c #090100",
"@  c #0B0100",
"#  c #0D0201",
"$  c #0F0201",
"%  c #120201",
"&  c #130302",
"*  c #160302",
"=  c #190302",
"-  c #1B0502",
";  c #1E0502",
":  c #1D0603",
">  c #210502",
",  c #230502",
"<  c #240603",
"1  c #270603",
"2  c #2A0603",
"3  c #2B0705",
"4  c #2E0705",
"5  c #300705",
"6  c #330905",
"7  c #360905",
"8  c #360B07",
"9  c #380905",
"0  c #3B0A05",
"q  c #3C0A06",
"w  c #3F0A06",
"e  c #340D09",
"r  c #370D09",
"t  c #3C0D09",
"y  c #410B06",
"u  c #420B07",
"i  c #450D07",
"p  c #480D07",
"a  c #490E09",
"s  c #4C0E09",
"d  c #4E0E09",
"f  c #4D0F0A",
"g  c #510E09",
"h  c #530F09",
"j  c #560F09",
"k  c #580F09",
"l  c #40150F",
"z  c #48150F",
"x  c #5A110A",
"c  c #5C110A",
"v  c #5F110A",
"b  c #491611",
"n  c #541B15",
"m  c #60120B",
"M  c #65120B",
"N  c #67120B",
"B  c #6A130B",
"V  c #6C130B",
"C  c #6F130B",
"Z  c #6C160E",
"A  c #70150D",
"S  c #72150D",
"D  c #75160D",
"F  c #77160D",
"G  c #74170E",
"H  c #79160E",
"J  c #7B170E",
"K  c #7D170E",
"L  c #7A190F",
"P  c #5D231B",
"I  c #64241E",
"U  c #65271E",
"Y  c #6A231B",
"T  c #7B2C19",
"R  c #7A2E1A",
"E  c #7A2F1A",
"W  c #7B2F1B",
"Q  c #6F2B23",
"!  c #742821",
"~  c #772A22",
"^  c #1A5F0E",
"/  c #2A751A",
"(  c #80190E",
")  c #861A0F",
"_  c #8A1A0F",
"`  c #8D1A0F",
"'  c #861D12",
"]  c #941D12",
"[  c #9B1E12",
"{  c #9D1E12",
"}  c #A11E12",
"|  c #A31F13",
" . c #A71F13",
".. c #86300F",
"X. c #812F1F",
"o. c #97271B",
"O. c #87361B",
"+. c #8C391E",
"@. c #AA2115",
"#. c #AF2215",
"$. c #B32215",
"%. c #B62316",
"&. c #BA2416",
"*. c #BD2617",
"=. c #823221",
"-. c #973423",
";. c #A13D24",
":. c #C12717",
">. c #C32717",
",. c #C22A1B",
"<. c #C5281A",
"1. c #C92A1A",
"2. c #CA2A1B",
"3. c #CC2B1B",
"4. c #CF2C1D",
"5. c #D12F1E",
"6. c #D32F1E",
"7. c #D63221",
"8. c #D63321",
"9. c #D83422",
"0. c #DB3623",
"q. c #DD3826",
"w. c #DE3927",
"e. c #E03B28",
"r. c #E13C2A",
"t. c #E33D2A",
"y. c #E43F2B",
"u. c #A7401B",
"i. c #B04621",
"p. c #C04530",
"a. c #E3402C",
"s. c #E7422E",
"d. c #E74A36",
"f. c #E94833",
"g. c #EB4A36",
"h. c #EB4C38",
"j. c #ED513C",
"k. c #ED533F",
"l. c #ED5441",
"z. c #EE5A46",
"x. c #EF5B48",
"c. c #EF5D4A",
"v. c #F06251",
"b. c #F06553",
"n. c #F16957",
"m. c #F26E5C",
"M. c #F27565",
"N. c #F2796A",
"B. c #F37B6B",
"V. c #388826",
"C. c #64B946",
"Z. c #7BD458",
"A. c #F58C7F",
"S. c #F8AAA0",
"D. c #EEFFC3",
/* pixels */
"                      . .               .       . . .           ",
"                    . _ $..       . . . $..   . | M.i .         ",
"                  . @.< .   . . . q 3 < _ .     . y n.2 .       ",
"          .     . v w.3 . . q | g l.w. ..         . 5 5..       ",
"        . $.. . < d l.0 o <.b.7 . d m .           . v j..       ",
"        . _ < 3 0 < g m.z.q 1 S 3 < . .   . . . . m a.M .       ",
"          .  .w.l.g d.0 N.N i j.q C.D.< . 2 V [ y.g.y .         ",
"    . .     . m d . / 1 y 5 <. .< d q u.r.b.N.@.j 3 .           ",
"  . r.%..     . . ^ D.C...#.F A.0 - y f.i 6 F 6 . .             ",
". x.J , 0 .     . Y Z.V.0 2.i z.:.7 ; 2 2 , . .                 ",
". s.6 . .     . F 0 X.q S.)  .( = a :.( x 0 .                   ",
". 9.6 .       . 8.3.j.e.h.@.w.j w.q.;.i.d.2.v . .               ",
". y.y .     . 5.J 5.i v.d 5.S ' =.l R F 3 k 3.| 7 .   .         ",
"  . 9.i . . 2.5 x 0 a.2.v 6 q U . . 3 O.i 3 :.p B x . *.. .     ",
"  . C c.$.8.M <  .M B v j.' A < . . . n C ; m , 3  .6 - n.d .   ",
"    . 0 h.` 2 @ 2 2 ; 2 a g. .. . . . @.% 2 0 , . , *.B , N.q . ",
"      . 0 7 o . . - 3 ) 3 j 2.o . . Z [ , 7 $ .   . 2 M v , w.. ",
"        . . .     . $ *.a x 2.R o % 4 h o , . .     . @ , . .   ",
"                    . g J 3 ` +.@ . i , . ; o 3 .     . .       ",
"                . . a 0 M < F -., . 7 @ . $ , 0 .               ",
"              . 3.K 0 % 7 % y p.< . 8 o o o 7 - .               ",
"                . 3.< @ - @ 0 ,.Y . e . . % 4 * o .             ",
"                . K % @ $ o . 2.W . e - . . , % @ .             ",
"                . a - . $ o ;  .U % : j . @ o $ . . .           ",
"                . q , . . . L S L ~ = J 2 $ . $ . . . . .       ",
"                . % ; , . , 7 { ] P ! o.k 2 o . 7 : B F ; .     ",
"              . . . = y < ; < ( e.a R Q M 3 & . 1 0 1 . . . .   ",
"            . 1 0.y < < i ; % F B i b z t . $ o M 6 &.- . .     ",
"          . ; S ; m j % 3 q 3 g , , 7 d 6 . . o S * u 6 .       ",
"        . ; u . . ; 5 & . . $ d $ - 6 g ( 3 . . < . . .         ",
"          . .     . . . . . . ; % . . . * i $ . . .             ",
"                            . . . . . . . . . .                 "
};
