/* XPM */
static char *_ed1339011f14c14804685d8ae16d35bP8J9czLCBELYDaA3[] = {
/* columns rows colors chars-per-pixel */
"32 32 181 2 ",
"   c None",
".  c black",
"X  c #020000",
"o  c #000200",
"O  c #040000",
"+  c #060101",
"@  c #060201",
"#  c #070302",
"$  c #000400",
"%  c #010601",
"&  c #0D0101",
"*  c #010801",
"=  c #020801",
"-  c #020902",
";  c #020C02",
":  c #020E02",
">  c #110202",
",  c #180202",
"<  c #1F0404",
"1  c #021102",
"2  c #031102",
"3  c #041203",
"4  c #061304",
"5  c #041504",
"6  c #061504",
"7  c #061706",
"8  c #071706",
"9  c #071906",
"0  c #071C06",
"q  c #081C06",
"w  c #081D07",
"e  c #091D07",
"r  c #091F07",
"t  c #091E08",
"y  c #091F09",
"u  c #141108",
"i  c #270404",
"p  c #2B0404",
"a  c #300404",
"s  c #2B140C",
"d  c #3C1D11",
"f  c #3A1F1A",
"g  c #092008",
"h  c #0B2209",
"j  c #0C230B",
"k  c #0C250B",
"l  c #0E250B",
"z  c #0D270C",
"x  c #0C280B",
"c  c #0C2A0B",
"v  c #0D290C",
"b  c #0E290C",
"n  c #0D2B0C",
"m  c #0E2D0D",
"M  c #0E2E0C",
"N  c #0E2F0D",
"B  c #0F2F0D",
"V  c #13280D",
"C  c #152A0F",
"Z  c #112E0C",
"A  c #112F0D",
"S  c #18280F",
"D  c #0F310D",
"F  c #0F330E",
"G  c #11330E",
"H  c #14310F",
"J  c #11350E",
"K  c #12350E",
"L  c #12360F",
"P  c #13390F",
"I  c #1D2512",
"U  c #133711",
"Y  c #143A11",
"T  c #153B12",
"R  c #153C13",
"E  c #173F13",
"W  c #153D14",
"Q  c #183D14",
"!  c #2D2B1C",
"~  c #4B1918",
"^  c #462213",
"/  c #592A18",
"(  c #72371F",
")  c #552420",
"_  c #4E372F",
"`  c #56302E",
"'  c #5A3531",
"]  c #6A282A",
"[  c #7B3722",
"{  c #7C3623",
"}  c #793B22",
"|  c #722E30",
" . c #762F33",
".. c #603933",
"X. c #174014",
"o. c #184014",
"O. c #194115",
"+. c #1A4217",
"@. c #1C4217",
"#. c #1C4517",
"$. c #1C4717",
"%. c #1D4717",
"&. c #1E4818",
"*. c #1E4919",
"=. c #1E4C19",
"-. c #22411A",
";. c #22471C",
":. c #204D1A",
">. c #24491E",
",. c #224C1C",
"<. c #224E1C",
"1. c #24521F",
"2. c #275520",
"3. c #285320",
"4. c #2F5325",
"5. c #2D5B24",
"6. c #305D27",
"7. c #315F28",
"8. c #316229",
"9. c #35672B",
"0. c #36682D",
"q. c #396A2F",
"w. c #3C6E30",
"e. c #3D6E33",
"r. c #425C2F",
"t. c #6A482A",
"y. c #685C34",
"u. c #417134",
"i. c #437435",
"p. c #467937",
"a. c #477A39",
"s. c #487B3A",
"d. c #497C3B",
"f. c #4B7C3B",
"g. c #4C7D3C",
"h. c #803622",
"j. c #8F4729",
"k. c #86512E",
"l. c #935B37",
"z. c #97794C",
"x. c #4C803C",
"c. c #4F823F",
"v. c #518340",
"b. c #518540",
"n. c #568943",
"m. c #568B43",
"M. c #588B46",
"N. c #5B8D46",
"B. c #5C8F48",
"V. c #609148",
"C. c #61934B",
"Z. c #63974C",
"A. c #64984D",
"S. c #679A4F",
"D. c #689C4F",
"F. c #6A9E52",
"G. c #72A656",
"H. c #74A856",
"J. c #79AD5B",
"K. c #7AAF5B",
"L. c #7BAC5C",
"P. c #7CB05D",
"I. c #7FB25D",
"U. c #8D9859",
"Y. c #81B55F",
"T. c #84B862",
"R. c #87BC64",
"E. c #8ABF66",
"W. c #8EC46A",
"Q. c #8FC66A",
"!. c #99D172",
"~. c #9AD573",
"^. c #A5E37B",
"/. c #9227C2",
"(. c #D74EF3",
"). c #F27DFD",
"_. c #A7E980",
"`. c #A9EA82",
"'. c #C2F593",
"]. c #F8F9C1",
"[. c #FFF3FB",
/* pixels */
"                      . .               .       . . .           ",
"                    . 3.w..       . . . w..   . 8.^.N .         ",
"                  . 9.y .   . . . v z y 2..     . N !.j .       ",
"          .     . Y V.z . . v 8.K Y.V.9..         . z c..       ",
"        . w.. . y D Y.v $ s.W.v . D R .           . Y J..       ",
"        . 3.y j v y K ~.T.v h &.j y . .   . . . . R D.W .       ",
"          . 9.V.Y.K G.c _.R N P.v ).[.r . h O.7.S.H.N .         ",
"    . .     . R G . ).r N z a.9.g F M /.S.W.^.0.K z .           ",
"  . Z.w..     . . ).[.(./.q.$.'.v 6 N G.N z $.c . .             ",
". R.=.y c .     . /.).[.n s.N T.a.c 6 h h y . .                 ",
". F.z $ .     . $.c /.v ].3.8.,.4 N s.,.Y c .                   ",
". M.v .       . m.c.P.C.K.0.V.K V.B.z.[ L.g.Y . .               ",
". S.M .     . c.=.c.A W.G c.$.4.t.f [ ;.j K x.8.c .   .         ",
"  . M.M . . f.j Y c D.g.d c s ' . . a k.A z p.D O.U . i.. .     ",
"  . O.W.w.m.W h 9.E E Y P./ ^ i . . + ) @.6 R 9 z 8.c 6 !.K .   ",
"    . v J.2.h ; j j 8 j G H.( + . . . 0.2 j c r . r i.W r `.v . ",
"      . v v $ . . 6 j 1.c U j.+ . . -.6.9 c 2 .   . j X.Y 8 A.. ",
"        . . .     . ; i.N U g.} + > z K $ g $ .     . = r . .   ",
"                    . K =.j 2.l.& . A r $ 6 = j .     . .       ",
"                . . N z W y $.y.i + b = . ; r c .               ",
"              . c.=.c 2 v 1 N U.p + V $ $ = c 3 .               ",
"                . x.y ; 6 - v g.] . S . . ; z 5 = .             ",
"                . ,.2 ; : $ $ g.[ . I 6 . $ y 2 = .             ",
"                . A 6 $ = = q 9._ , u K . = = ; . . .           ",
"                . v r . $ . =.O.>. .i ,.j ; $ ; . . . . .       ",
"                . 3 9 9 . 9 c 6.5.` | r.U h $ . c 9 O.$.6 .     ",
"              . . . 3 M g 9 y ,.A.N h...W z 2 . y v y . . . .   ",
"            . h N.N r y D 9 2 =.X.N ! ~ V . ; = R c u.5 . .     ",
"          . 9 O.9 Y Y 2 z N k K 0 h v G v . . $ $.2 N v .       ",
"        . 9 N . . 6 c 2 . . ; D ; 6 z K ,.h $ . r $ . .         ",
"          . .     . . . . . . 6 2 . . . 3 D ; . . .             ",
"                            . . . . . . . . . .                 "
};
