/* XPM */
static char *_f43e8093cf54472badae520c1d1d5941iUORh6LKs2OWMKE[] = {
/* columns rows colors chars-per-pixel */
"32 32 62 1 ",
"  c None",
". c black",
"X c #2E1900",
"o c #3A2100",
"O c #0E2138",
"+ c #402400",
"@ c #43380A",
"# c #563100",
"$ c #5E4200",
"% c #53440C",
"& c #53450C",
"* c #724B00",
"= c #64520F",
"- c #725D05",
"; c #705C0F",
": c #1A3751",
"> c #2A5877",
", c #C00000",
"< c red",
"1 c #FF000D",
"2 c #885600",
"3 c #986F00",
"4 c #816911",
"5 c #FF4300",
"6 c #A07878",
"7 c #A48300",
"8 c #A08115",
"9 c #AD8B15",
"0 c #BE9818",
"q c #D38505",
"w c #DBAF1B",
"e c #DDAF19",
"r c #FFB505",
"t c #FFBC00",
"y c #EEC51E",
"u c #E9C522",
"i c #F9DD2A",
"p c #FAE033",
"a c #FAE035",
"s c #FAE339",
"d c #FBEA4A",
"f c #FFF94F",
"g c #1A00A2",
"h c #3500F8",
"j c #3900FD",
"k c #86679E",
"l c #C09090",
"z c #E0C0A0",
"x c #FFD3AF",
"c c #C1A3D7",
"v c #D0D0D0",
"b c gainsboro",
"n c #E4E4E4",
"m c #EAEAEA",
"M c #FFFFE5",
"N c #FCFFEF",
"B c gray94",
"V c #F9F9F9",
"C c gray98",
"Z c gray99",
"A c #FDFDFD",
"S c white",
/* pixels */
"           .....                ",
"           .qfq..               ",
"           .rMrvB.   OO         ",
"          .BqfqvBv. O>:O  >O    ",
"          .qzqzlqB.  O>:1 O:    ",
"         .6B,z<,vl6.1O::O51     ",
"          .lzxz6zA. 5 OO  t1:O  ",
"          .Clzl6bA.  1  1  O>1  ",
"          .Aml6omA. 15 : 1  1O  ",
"         .2ACoo.AA#. t:>O51 51  ",
"        .7#ACqq.AA#2. O1Ot5 t51 ",
"     ...72#Aqrrq.A72#. t151 .t1 ",
"  ...ww82$2orMfro72$$7.1t1 .N.. ",
" .x6l-iw$#7oqfro72$$$27.1..Nnnj.",
" .zl6@sa8$#7orqo72$#X$2..kNnjjg.",
" .l6l@waw#X2oqo73$#X.NNNncjjgg. ",
"  ..i@9iw#.$7o732$#.jhhhjghx..  ",
"   .i@@uw=.#2o2$#y8..ggggxlz.   ",
"   .i&@u0=.8yddddy#..weu@6zl.   ",
"   .w=&w0.#8yddy*$#+.=wa@@w.    ",
"   .w4=w8.#*7o7$2*$#.=wi@&i.    ",
"   .w;=0=.$27o7232*#..wi&=u.    ",
"    .w08.#237o73232#+.8u=4u.    ",
"     ....#327o72323$#.=e&;e.    ",
"        .$237o73232*#..8ee.     ",
"       .#*327o723232*#.......   ",
"        .$237o7323232.......... ",
"        .oo$7.72*2$oo.......... ",
"        .qqo......oqq.........  ",
"       .frrq...  .qrfr......    ",
"      .frrq..     .qrf...       ",
"       ....        ....         "
};
