/* XPM */
static char *_1b3e30fcd4b4843d213d8fb7783fa58FcaQmk7HGFWfGiFw[] = {
/* columns rows colors chars-per-pixel */
"32 32 62 1 ",
"  c None",
". c black",
"X c #2E1900",
"o c #3A2100",
"O c #402400",
"+ c #43380A",
"@ c #563100",
"# c #5E4200",
"$ c #53440C",
"% c #53450C",
"& c #724B00",
"* c #64520F",
"= c #725D05",
"- c #705C0F",
"; c #C00000",
": c red",
"> c #885600",
", c #986F00",
"< c #816911",
"1 c #A07878",
"2 c #A48300",
"3 c #A08115",
"4 c #AD8B15",
"5 c #BE9818",
"6 c #D38505",
"7 c #DBAF1B",
"8 c #DDAF19",
"9 c #FFB505",
"0 c #EEC51E",
"q c #E9C522",
"w c #F9DD2A",
"e c #FAE033",
"r c #FAE035",
"t c #FAE339",
"y c #FBEA4A",
"u c #FFF94F",
"i c #1A00A2",
"p c #38719E",
"a c #3500F8",
"s c #3900FD",
"d c #006DD6",
"f c #86679E",
"g c #6998B9",
"h c #009FFF",
"j c #C09090",
"k c #E0C0A0",
"l c #FFD3AF",
"z c #98B7CC",
"x c #C1A3D7",
"c c #D0D0D0",
"v c gainsboro",
"b c #E4E4E4",
"n c #EAEAEA",
"m c #FFFFE5",
"M c #FCFFEF",
"N c gray94",
"B c #F9F9F9",
"V c gray98",
"C c gray99",
"Z c #FDFDFD",
"A c #FCFDFE",
"S c white",
/* pixels */
"           .....                ",
"           .6u6..               ",
"           .9m9cN.              ",
"          .N6u6cNc. zZZAz   d   ",
"          .6k6kj6N.  ppg        ",
"         .1N;k:;cj1. zZZz h     ",
"          .jklk1kZ.   pg     dh ",
"          .Vjkj1vZ.    Zz  h h  ",
"          .Znj1onZ.hd     d     ",
"         .>ZVoo.ZZ@. h  h  h    ",
"        .2@ZV66.ZZ@>.  hd  d  h ",
"     ...2>@Z6996.Z2>@.   hd .h  ",
"  ...773>#>o9mu9o2>##2.   d.Md. ",
" .l1j=w7#@2o6u9o2>###>2.hd.Mbbs.",
" .kj1+tr3#@2o96o2>#@X#>..fMbssi.",
" .j1j+7r7@X>o6o2,#@X.MMMbxssii. ",
"  ..w+4w7@.#2o2,>#@.saaasial..  ",
"   .w++q7*.@>o>#@03..iiiiljk.   ",
"   .w%+q5*.30yyyy0@..78q+1kj.   ",
"   .7*%75.@30yy0&#@O.*7r++7.    ",
"   .7<*73.@&2o2#>&#@.*7w+%w.    ",
"   .7-*5*.#>2o2>,>&@..7w%*q.    ",
"    .753.@>,2o2,>,>@O.3q*<q.    ",
"     ....@,>2o2>,>,#@.*8%-8.    ",
"        .#>,2o2,>,>&@..388.     ",
"       .@&,>2o2>,>,>&@.......   ",
"        .#>,2o2,>,>,>.......... ",
"        .oo#2.2>&>#oo.......... ",
"        .66o......o66.........  ",
"       .u996...  .69u9......    ",
"      .u996..     .69u...       ",
"       ....        ....         "
};
