/* XPM */
static char *e954468d3ce64e3c8c43db9271885abdRSOpnYgyJc1szoRN[] = {
/* columns rows colors chars-per-pixel */
"32 32 17 1 ",
"  c None",
". c black",
"X c #453D13",
"o c #6B5F1D",
"O c #1A3A63",
"+ c #96614C",
"@ c #968528",
"# c #C8B236",
"$ c #958C57",
"% c #CA8F72",
"& c #E59575",
"* c #C8BB74",
"= c #FFE245",
"- c #3171BF",
"; c #FFB691",
": c #FFEE95",
"> c #FFD3AF",
/* pixels */
"               ....             ",
"              .##oo..           ",
"             .#@@#==o.          ",
"             .#@oX..-O.         ",
"            .#@oX. .O-.         ",
"            .#@@oX. ..          ",
"           .#@@@@oX..#.   .     ",
"           .==##@@oXX#.  .&.    ",
"          .=##@@@oXX#.   .&.    ",
"       . .#@@@ooXXX##.  .:&..   ",
"      .#.@@ooXXXX##..   .:&+.   ",
"       .#=====###..  ...*:$.    ",
"        .....>%;%. ..X$X**$.    ",
"        .o$X.>;XX..o$$o$X*.     ",
" .......o$oX@XXo@o$oo:$o$.      ",
".;;;:::*$oXX##-##oX:$o:$X.      ",
" .%%.*$$oX$X#@X#@XXo:$X:$.      ",
"  .. ....$XoX@-@oX.Xo:XX$.      ",
"         .o$XoXoXX..Xo$X.       ",
"          ..XXXXXX. ....        ",
"          .X@*@o$@X.            ",
"         .X:#:@X*@*X.           ",
"         .X*#:oX:#:oX.          ",
"         .:@#*o.:#:@X.          ",
"         .*#*@o.:##:oX...       ",
"         .*#*oX.@:#*@oX....     ",
"          .@@*X..:#*@oX......   ",
"        . .oo*X..*@#*o........  ",
"       .-...XXX..o*oXX..-...... ",
"       .=XX@@@....XX@@XX=.....  ",
"        .=@@@X......X@@=.....   ",
"         ........   .......     "
};
