/* XPM */
static char *result[] = {
/* columns rows colors chars-per-pixel */
"32 32 17 1 ",
"  c black",
". c #0D2709",
"X c #1D3F19",
"o c #2D6226",
"O c #E07000",
"+ c #3E8A34",
"@ c #648E5E",
"# c #54B846",
"$ c #6BEA5A",
"% c #FFC000",
"& c yellow",
"* c #85BE7E",
"= c #CA8F72",
"- c #FFB691",
"; c #ABF3A1",
": c #FFD3AF",
"> c None",
/* pixels */
">>>>>>>>>>>>>>>    >>>>>>>>>>>>>",
">>>>>>>>>>>>>> ##oo  >>>>>>>>>>>",
">>>>>>>>>>>>> #++#$$o >>>>>>>>>>",
">>>>>>>>>>>>> #+oX  &% >>>>>>>>>",
">>>>>>>>>>>> #+oX > %O >>>>>>>>>",
">>>>>>>>>>>> #++oX >  >>>>>>>>>>",
">>>>>>>>>>> #++++oX  # >>>>>>>>>",
">>>>>>>>>>> $$##++oXX# >>>>>>>>>",
">>>>>>>>>> $##+++oXX# >>>>>>>>>>",
">>>>>>> > #+++ooXXX## >>>>>>>>>>",
">>>>>> # ++ooXXXX##  >>>>>>>>>>>",
">>>>>>> #$$$$$###  >>  >>>>>>>>>",
">>>>>>>>     :=-=    X@ >>>>>>>>",
">>>>>>>> o@X :-XX  o@@o@ >>>>>>>",
">>> >>> o@oX+XXo+o@oo$@o@ >>> >>",
">> -   X$oXX##%##oX$@o$@XX   - >",
">> --$$X$X@X#+X#+XXo$@X$@X$;-- >",
">>> ****X@XoX+%+oXXXo$XX@X*** >>",
">>>>  @@X o@XoXoXXX Xo@X @@  >>>",
">>>>>>  >  XXXXXXXX     >  >>>>>",
">>>>>>>  $#oX*+oX+X+o#  >>>>>>>>",
">>>>>> $$#oXo.. ..oX+o## >>>>>>>",
">>>>> $##oXoX     XoX+o## >>>>>>",
">>>>> $#ooXoX.   .oXX+oo# >>>>>>",
">>>>>> $##oXoo. .oX++o## >>>>>>>",
">>>>>>>  ##oXX+ +X+o##     >>>>>",
">>>>>>>    ##++ ++##         >>>",
">>>>>>       X+ +X            >>",
">>>>>        .$ $.             >",
">>>>>       %$   $%           >>",
">>>>>>                       >>>",
">>>>>>>                    >>>>>"
};
