/* XPM */
static char *fdc5303e21f94cb3cacf56647345f1412Dy6JiLWZbzsED08[] = {
/* columns rows colors chars-per-pixel */
"32 32 13 1 ",
"  c None",
". c black",
"X c #251E36",
"o c #3E2934",
"O c #400000",
"+ c #494949",
"@ c #766666",
"# c red",
"$ c #EA743C",
"% c #A14A48",
"& c #FCCB45",
"* c #FFFF80",
"= c white",
/* pixels */
"          O                     ",
"         O$O                    ",
"        O$O   O                 ",
"       O$$$O O&O                ",
"       O$&$$O O&O             . ",
"       O$&&&$OO*O            .o.",
"        O$*&&$OO*O           .+.",
"        O$&**&$O*O          .%o.",
"         O&=*&&*&O         .+%o.",
"         O$&**&=&O      .  .%+o.",
"          O&**&&*O     .%..++oo.",
"          O&*=*&*&O   .+%o++%oX.",
"          O&*****&O  .#%o+%%ooX.",
"         OO$&*=**&$O.#$#+%%%ooX.",
"        O#O#**==**&&#$#o%%+ooo. ",
"         O##**=****&&##%%+%X+o. ",
"        O#$#*==***&&$$#%%%%.oo. ",
" .      O#&***==**&$##%%%%X@+o. ",
".+..    O#$&**=***&$#%%%%%.+oX. ",
".o++....#$&&**===*&$#%%%%X@+o.  ",
".+%+%++%##$&*=*==**&$#+X.@+oo.  ",
".+X++%%%$X#&=====**&#X.o++ooX.  ",
".o+X%%%%X+X$&====*&$.+o+oooX..  ",
".oo+XX%%.o@.o*==*&..+@+oooXX..  ",
" .ooooX...o@+...X.o+@+oooXX.... ",
" .XXo.XoXX.oo+ooXo+@+oooXoX..X..",
".X.XXX.XoXXXoo+ooX@@o++ooo.X....",
".X.XXoX.oo+oXXo@@@++@+ooXXoo.X..",
".XX.XXoXo+o+oooo@+o++oo+X.o.XX..",
".XooXoooXo+ooX+@+oooooXXXoXXX.. ",
" .Xoo+o++o@+ooXX@@+o+ooXoXXX..  ",
"  ..........................    "
};
