/* XPM */
static char *b9819b89a35746668b2f562232145afdc8NrdefpH8iFHxQX[] = {
/* columns rows colors chars-per-pixel */
"32 32 185 2 ",
"   c None",
".  c black",
"X  c #000200",
"o  c #000102",
"O  c #000202",
"+  c #000105",
"@  c #000504",
"#  c #000805",
"$  c #000208",
"%  c #000408",
"&  c #010409",
"*  c #010509",
"=  c #01050C",
"-  c #020A09",
";  c #020D09",
":  c #021009",
">  c #02100A",
",  c #000513",
"<  c #000813",
"1  c #020813",
"2  c #020913",
"3  c #000A13",
"4  c #010917",
"5  c #010D14",
"6  c #010C17",
"7  c #010C1C",
"8  c #010D1C",
"9  c #010D1F",
"0  c #04101F",
"q  c #05201A",
"w  c #06271B",
"e  c #062A1F",
"r  c #08291F",
"t  c #021120",
"y  c #041322",
"u  c #041124",
"i  c #041427",
"p  c #051529",
"a  c #05142E",
"s  c #06152F",
"d  c #061732",
"f  c #061832",
"g  c #051836",
"h  c #051B36",
"j  c #061C3D",
"k  c #061E3D",
"l  c #081C39",
"z  c #081F3E",
"x  c #082623",
"c  c #062D20",
"v  c #082E22",
"b  c #0C3529",
"n  c #10392F",
"m  c #092332",
"M  c #0A2639",
"N  c #0C3531",
"B  c #0A323B",
"V  c #0D4131",
"C  c #0D4133",
"Z  c #0F453F",
"A  c #114237",
"S  c #10463F",
"D  c #10493A",
"F  c #081F41",
"G  c #081F46",
"H  c #082441",
"J  c #092442",
"K  c #082044",
"L  c #082344",
"P  c #0A2946",
"I  c #092248",
"U  c #092348",
"Y  c #0A234B",
"T  c #092748",
"R  c #0A264B",
"E  c #0A2949",
"W  c #0A294E",
"Q  c #0A2951",
"!  c #0A2A51",
"~  c #0A2953",
"^  c #0C2B52",
"/  c #0C2E55",
"(  c #0D2E56",
")  c #0D2F56",
"_  c #0C2E5D",
"`  c #0F3357",
"'  c #0F315D",
"]  c #0F335F",
"[  c #0D3561",
"{  c #0D3963",
"}  c #0D3A63",
"|  c #0D3A66",
" . c #0D3A6B",
".. c #0F3B6C",
"X. c #103D6D",
"o. c #103E70",
"O. c #113F71",
"+. c #185E4E",
"@. c #1B6153",
"#. c #226F5E",
"$. c #144A6F",
"%. c #134572",
"&. c #114474",
"*. c #114574",
"=. c #134675",
"-. c #144876",
";. c #144A76",
":. c #144879",
">. c #144B7E",
",. c #154F7F",
"<. c #17557E",
"1. c #18567F",
"2. c #267F6C",
"3. c #8A5900",
"4. c #26897F",
"5. c #2F947F",
"6. c #32A07A",
"7. c #E1BE00",
"8. c #E5C601",
"9. c #F3E33B",
"0. c #144F80",
"q. c #155182",
"w. c #155286",
"e. c #185384",
"r. c #1A5B83",
"t. c #155389",
"y. c #17578A",
"u. c #17568D",
"i. c #185A8E",
"p. c #185F93",
"a. c #186190",
"s. c #1B629A",
"d. c #1C669B",
"f. c #1C6B9D",
"g. c #207895",
"h. c #1C6CA0",
"j. c #1C6DA2",
"k. c #1F70A4",
"l. c #1F76A4",
"z. c #2072A8",
"x. c #227AAD",
"c. c #227EAD",
"v. c #237AB0",
"b. c #33A590",
"n. c #3AB29A",
"m. c #3DB69D",
"M. c #2488BA",
"N. c #248ABC",
"B. c #278EBC",
"V. c #2EA4A5",
"C. c #2791C1",
"Z. c #2993C2",
"A. c #2A95C5",
"S. c #2B97C8",
"D. c #2B9ECB",
"F. c #319ECD",
"G. c #2EA1CD",
"H. c #31A1D1",
"J. c #33A2D1",
"K. c #33A5D5",
"L. c #35A5D5",
"P. c #36A9D8",
"I. c #37AAD9",
"U. c #39ABD9",
"Y. c #3FAEDC",
"T. c #41AEDB",
"R. c #42B6DF",
"E. c #48B8DF",
"W. c #49BAE1",
"Q. c #4BBCE2",
"!. c #4FBDE3",
"~. c #56BEE2",
"^. c #4AD2C9",
"/. c #4ACCDA",
"(. c #5FC6E7",
"). c #5DC9E7",
"_. c #68CEE9",
"`. c #6DCFE9",
"'. c #7FDAEE",
"]. c #FFFEBD",
"[. c #86DBEE",
"{. c #A4E6F2",
"}. c #AFEAF4",
"|. c #B6ECF5",
" X c #DEF5F9",
/* pixels */
"                      . .               .       . . .           ",
"                    . a.c..       . . . c..   . j.{./ .         ",
"                  . l.i .   . . . E h i a..     . ~ '.d .       ",
"          .     . &.J.h . . W j.} Q.J.l..         . z S..       ",
"        . c.. . i ] ~.T . M.`.U . ] &..           . X.E..       ",
"        . a.i h E i } [.~.W a <.h u . .   . . . . &.I.&..       ",
"          . l.J.Q.} Y.R }.&./ Q.Y 9.].u . d -.d.I.T.~ .         ",
"    . .     . &.] . 7.u ~ k N.l.u ] R 3.I.`.}.l.} l .           ",
"  . L.x..     . . 3.].7.3.k.w. XT 6 W Y./ L w.L . .             ",
". ).y.u U .     . w 9.8.R Z./ ~.M.G 6 s d u . .                 ",
". U.L . .     . w.R b R `.y.j.u.2 _ M.u.X.R .                   ",
". G.K .       . D.Z.W.K.R.z.L.| J.J.^.6.E.Z.X.. .               ",
". I.~ .     . A.t.A./ _.] A.q.r.4.x D <.z | Z.h.L .   .         ",
"  . G./ . . Z.l  .P I.Z.@.L A n . . : b.^ h M./ -. .. v.. .     ",
"  . >.(.c.D.&.a l.-.:.O.W.2.#.; . . . r -.9 &.u l j.F 6 [.[ .   ",
"    . E R.a.d $ d d 9 s _ T.5.. . . . k., d L y . u x.:.u |.U . ",
"      . P K + . . 6 h i.F | n.. . . $.d.9 H = .   . h -.X.0 L.. ",
"        . . .     . % v._  .A.+.. @ l } + u . .     . $ 9 . .   ",
"                    . } w.h a.m.. . ^ y . 6 $ d .     . .       ",
"                . . _ T &.p q.V.; . H % . @ u R .               ",
"              . Z.y.U 2 T , ~ /.: . H . . + L 6 .               ",
"                . Z.p $ 6 $ P B.c . M . . % k 2 + .             ",
"                . y., % % + . Z.C . m 6 . + y = + .             ",
"                . _ 6 . $ + 9 l.Z # 6 } . % $ % . . .           ",
"                . Y u . . . y.>.1.v # e.d $ . % . . . . .       ",
"                . = 6 u . 9 L f.s.N v g. .d . . G 9 :.q.9 .     ",
"              . . . 2 ~ i 6 p u.L./ C S %.g 2 . s T s . . . .   ",
"            . s F.~ i y / 9 2 t.:./ B q P . % $ %.F x.6 . .     ",
"          . 9 >.9 O.| , l W k ] y u R ` K . . . q., ~ F .       ",
"        . 9 ~ . . 6 F 2 . . % ' % 6 K [ u.h . . u . . .         ",
"          . .     . . . . . . 9 = . . . 2 / % . . .             ",
"                            . . . . . . . . . .                 "
};
