/* XPM */
static char *ef829039ab5245eda8694ff83f096f6fIyEb64eswwVkbXe1[] = {
/* columns rows colors chars-per-pixel */
"32 32 185 2 ",
"   c None",
".  c black",
"X  c #020000",
"o  c #040000",
"O  c #040100",
"+  c #040001",
"@  c #050101",
"#  c #050102",
"$  c #070202",
"%  c #0A0301",
"&  c #090203",
"*  c #0B0202",
"=  c #0E0203",
"-  c #0B0204",
";  c #100203",
":  c #110503",
">  c #160703",
",  c #100204",
"<  c #100205",
"1  c #110305",
"2  c #130405",
"3  c #150405",
"4  c #160507",
"5  c #1C0904",
"6  c #160508",
"7  c #180508",
"8  c #1B0509",
"9  c #1C0709",
"0  c #1A0A09",
"q  c #1D0809",
"w  c #1E090A",
"e  c #2A0E07",
"r  c #200A0A",
"t  c #210D0B",
"y  c #230F0B",
"u  c #270D08",
"i  c #220E0D",
"p  c #240F0D",
"a  c #2E0F08",
"s  c #211009",
"d  c #24100D",
"f  c #24110D",
"g  c #25130E",
"h  c #25150E",
"j  c #28160E",
"k  c #28170E",
"l  c #29170F",
"z  c #2A170E",
"x  c #2E150D",
"c  c #29180F",
"v  c #2B180F",
"b  c #2B1B0F",
"n  c #2D1A10",
"m  c #2E1B11",
"M  c #2E1D11",
"N  c #301B11",
"B  c #301D11",
"V  c #301E11",
"C  c #312013",
"Z  c #312113",
"A  c #322014",
"S  c #322114",
"D  c #352214",
"F  c #342215",
"G  c #362315",
"H  c #372516",
"J  c #382417",
"K  c #382517",
"L  c #382717",
"P  c #3B2717",
"I  c #3A2718",
"U  c #3B281A",
"Y  c #3F2A1A",
"T  c #3E2A1B",
"R  c #412016",
"E  c #482114",
"W  c #4A2116",
"Q  c #43271B",
"!  c #412B1B",
"~  c #422D1C",
"^  c #432E1D",
"/  c #452E1D",
"(  c #442F1E",
")  c #462F1E",
"_  c #492F1E",
"`  c #572817",
"'  c #582B1D",
"]  c #6B2004",
"[  c #67301C",
"{  c #483020",
"}  c #4A3020",
"|  c #4C3222",
" . c #4F3222",
".. c #4F3522",
"X. c #513522",
"o. c #523523",
"O. c #523623",
"+. c #533624",
"@. c #533724",
"#. c #543725",
"$. c #563724",
"%. c #573825",
"&. c #583827",
"*. c #593A28",
"=. c #5B3C28",
"-. c #5C3C29",
";. c #693628",
":. c #603D2A",
">. c #663E2B",
",. c #6F3C2B",
"<. c #793625",
"1. c #7B3625",
"2. c #753C2B",
"3. c #69412D",
"4. c #6A422E",
"5. c #6C432E",
"6. c #6E442F",
"7. c #734530",
"8. c #754530",
"9. c #7A4932",
"0. c #7D4831",
"q. c #7D4B34",
"w. c #902F08",
"e. c #AA350A",
"r. c #803C23",
"t. c #873F22",
"y. c #863F23",
"u. c #8C3F24",
"i. c #873D2B",
"p. c #813F2E",
"a. c #8C3D2E",
"s. c #8F4317",
"d. c #8C4122",
"f. c #8C482B",
"g. c #98422A",
"h. c #804D36",
"j. c #844F36",
"k. c #855037",
"l. c #8C513A",
"z. c #8D523B",
"x. c #9B5235",
"c. c #91533B",
"v. c #93543B",
"b. c #95563B",
"n. c #94563C",
"m. c #9A583D",
"M. c #9B593E",
"N. c #9D5A3E",
"B. c #A24C2D",
"V. c #A5512E",
"C. c #BD5428",
"Z. c #BA5935",
"A. c #E65C15",
"S. c #EF6A1B",
"D. c #CF5C31",
"F. c #A25E42",
"G. c #A45F42",
"H. c #A76144",
"J. c #A96346",
"K. c #AA6448",
"L. c #AC674A",
"P. c #AD684B",
"I. c #AE6B4C",
"U. c #B06E4F",
"Y. c #B57152",
"T. c #B47253",
"R. c #B57354",
"E. c #B77857",
"W. c #B87856",
"Q. c #B87958",
"!. c #B97A59",
"~. c #BB7C5B",
"^. c #BD7E5E",
"/. c #C36F4B",
"(. c #C27B56",
"). c #BE8361",
"_. c #C08563",
"`. c #C28968",
"'. c #C48C6A",
"]. c #C89473",
"[. c #C99777",
"{. c #CFA183",
"}. c #D2A588",
"|. c #D3A989",
" X c #FCCE99",
/* pixels */
"                      . .               .       . . .           ",
"                    . -.q..       . . . q..   . 5.{.C .         ",
"                  . 7.w .   . . . v f w -..     . V ].y .       ",
"          .     . ~ J.f . . b 5.L ~.K.8..         . h N..       ",
"        . q.. . w F ~.v . v.'.h . F ~ .           . Y Q..       ",
"        . -.w f v w I [.^.b r O.f w . .   . . . . ~ I.~ .       ",
"          . 7.K.~.I Y.j }.) C Q.j S. X9 . y _ 3.I.R.n .         ",
"    . .     . ~ F . w.9 M f z.7.w F b C.P.'.}.8.H d .           ",
"  . L.h..     . . ]  XA.s.9.O.^.j 1 n Y.C j O.j . .             ",
". ).$.8 j .     . 1.S.e.n v.Z ^.z.v 1 i s 8 . .                 ",
". U.j . .     . O.v g.b 9.=.6.%.; F z.*.! v .                   ",
". G.h .       . F.m.Q.K.R.8.K.I K.J./.D.W.v.Y . .               ",
". I.M .     . N.@.m.C `.H m. .>.f.R d.@.h U m.5.v .   .         ",
"  . G.C . . n.f Y v I.v.E h x 2.. . e V.C d l.C ) U . k.. .     ",
"  . } _.q.F.~ r 7.) } ~ Q.[ ` s . . # '  .4 ~ 4 f 5.h 1 ].F .   ",
"    . v R.:.i # y y 4 y F R.r.# . . . 8.* i h 8 . w k.} 8 |.n . ",
"      . j h # . . 1 d =.h I B.. . . O.3.3 j * .   . p ) Y 8 K.. ",
"        . . .     . $ k.A Y n.d.# 1 h I # 9 . .     . # 7 . .   ",
"                    . U @.f -.Z.* # C 8 . 1 # p .     . .       ",
"                . . A v ~ w O.x.u . j # . * 4 j .               ",
"              . m.%.v - v - M (.e . v . . # j 1 .               ",
"                . m.w . 1 # v v.1.# n . . * f = # .             ",
"                . %.- # - . # v.u.. N 1 . . 9 * . .             ",
"                . F 1 # $ . 6 8.,.> 0 L . # # * . . .           ",
"                . v 6 . . . $.} *.a.5 *.i * . # . . . . .       ",
"                . * 4 8 . 7 l 3.>.;.i.0.U i # . j 4 } O.4 .     ",
"              . . . 1 V w 4 w %.L.A d.p.~ d = . y j r . . . .   ",
"            . r H.V 9 8 V 4 = $.} A Q E V . # # ~ h k.1 . .     ",
"          . 4  .4 ! I * f n f L 8 8 v H j . . . ..= V h .       ",
"        . 4 V . . 1 h - . . * F # 1 h L &.f # . w . . .         ",
"          . .     . . . . . . 1 = . . . 1 C # . . .             ",
"                            . . . . . . . . . .                 "
};
