/* XPM */
static char *_673708374575[] = {
/* columns rows colors chars-per-pixel */
"32 32 147 2 ",
"   c #271402",
".  c #2B1603",
"X  c #2C1C06",
"o  c #321A04",
"O  c #372006",
"+  c #3B2307",
"@  c #372409",
"#  c #3A2709",
"$  c #3E2909",
"%  c #4C2707",
"&  c #462E0B",
"*  c #4D2D0A",
"=  c #542F09",
"-  c #45320C",
";  c #4C340D",
":  c #54350A",
">  c #543A0F",
",  c #5B380B",
"<  c #4D3610",
"1  c #513710",
"2  c #543A12",
"3  c #5A3F15",
"4  c #563D18",
"5  c #6A3D0D",
"6  c #663F10",
"7  c #564017",
"8  c #5A421B",
"9  c #5B481D",
"0  c #6C440E",
"q  c #624418",
"w  c #634A1D",
"e  c #6A4D1C",
"r  c #704F1D",
"t  c #63501E",
"y  c #6C511E",
"u  c #72531E",
"i  c #7D561E",
"p  c #73581F",
"a  c #624E21",
"s  c #6B4F23",
"d  c #655024",
"f  c #6D5323",
"g  c #6E5824",
"h  c #6E5A2A",
"j  c #725522",
"k  c #795622",
"l  c #745A24",
"z  c #7B5C24",
"x  c #755728",
"c  c #735B2A",
"v  c #7C5D2A",
"b  c #7F6125",
"n  c #75602D",
"m  c #7C632D",
"M  c #7E692E",
"N  c #766031",
"B  c #7D6431",
"V  c #7F6931",
"C  c #825E25",
"Z  c #815E29",
"A  c #836225",
"S  c #8D6325",
"D  c #83642B",
"F  c #8B652A",
"G  c #85692D",
"H  c #8C6A2C",
"J  c #906E27",
"K  c #926D2D",
"L  c #83702F",
"P  c #8E702E",
"I  c #94712E",
"U  c #99712C",
"Y  c #856531",
"T  c #8B6633",
"R  c #846B33",
"E  c #8C6C33",
"W  c #846A3A",
"Q  c #896C3A",
"!  c #916D33",
"~  c #867133",
"^  c #8C7235",
"/  c #877038",
"(  c #8D7239",
")  c #8E783C",
"_  c #937235",
"`  c #997433",
"'  c #927836",
"]  c #9E7935",
"[  c #93743A",
"{  c #9A753A",
"}  c #947A3B",
"|  c #9C7B3B",
" . c #A47C35",
".. c #A27E3C",
"X. c #A97E39",
"o. c #8E7141",
"O. c #917446",
"+. c #937C43",
"@. c #9D7F42",
"#. c #967848",
"$. c #A17F40",
"%. c #9C813F",
"&. c #A98033",
"*. c #A5823D",
"=. c #AC853B",
"-. c #B0873C",
";. c #B18A3E",
":. c #9D8241",
">. c #A38542",
",. c #AB8644",
"<. c #A48A45",
"1. c #AD8B44",
"2. c #A78B4A",
"3. c #B28E42",
"4. c #AF9448",
"5. c #B99243",
"6. c #BF9D45",
"7. c #B0924A",
"8. c #B9924B",
"9. c #B0984F",
"0. c #B99D56",
"q. c #BCA04C",
"w. c #BBA054",
"e. c #BFA45E",
"r. c #C1994A",
"t. c #C1A046",
"y. c #C7A34F",
"u. c #CAA14F",
"i. c #C5A653",
"p. c #CAA350",
"a. c #CAAA55",
"s. c #C3A65D",
"d. c #C5A95E",
"f. c #D0B05D",
"g. c #C6AD62",
"h. c #C9AE65",
"j. c #C3A968",
"k. c #C8AF6A",
"l. c #CBB165",
"z. c #CCB26B",
"x. c #D0B264",
"c. c #D5BA62",
"v. c #DBBD65",
"b. c #D4B86E",
"n. c #C8AF70",
"m. c #D2BA74",
"M. c #E5CA6E",
/* pixels */
"@ ; < & - & - & # - ; $ X $ & X X @ : & ; - & $ X O + + . . o   ",
"& m.n.j.k.k.s.g.w.w.>.d.l.h.h.2.0.e.h.k.b.g.:.4.q.q.6.t.=.U J &.",
"1 z.#.:.) / m E R m d V R ( d B B c Q [ } Q n f g l G z u e e 3 ",
"< s.W N h R M V M n M | c Q c B N E W ( ( ( Y f z i y y u z i q ",
"2 9.N V B V ^ M M n M ( B ( R [ [ R / ( E R D D i p y y e k u u ",
"- g.V V B +.R V ' l l R ) R c n n g m ' _ W Y D j l p y k p e q ",
"< g.( ^ } } R ^ G c l m W D R E R E N ( | E Y D l p p y l l z u ",
"$ q.g M R ^ n 9 ~ g t n ( R >.} E } ^ B Y | R C b b G b m b b z ",
"- c.' P Y R D M G g M } ( ^ E R } [ %.n g } H G J b H D G H G G ",
": c.D f m f m R n M ^ %.R ( n ) } / ^ ^ L V J P G P H R m R V G ",
", a.G j R m ^ ' M ' ' ~ [ R } } } } { B m R G H G L J D v R ^ ~ ",
"0 y.F k z c w v b H %.%.[ ( _ | | >.! E v F b ` U J K T T H ^ ' ",
"% u.K H C v f 9 b P } ' m c _ | .._  .U U K S K F `  .{ [ ! ! E ",
". ;.T F F j u D M | ) ~ c x G ^ _ H F C K C S K Z F ` ` F Z E D ",
"o -.H K ` Z u z I _ } %.[ { m G ` k k S S `  .K C Z k T v D ' ! ",
"5 r.j q F ! F F ^ _ ' } E _ | D K ` K H k r F  .Z K Z ! ! D z _ ",
"% 5.F D j z ` j D ^ } @.^ T m ^ K F H e k F e A v k C ` _ ! D D ",
"% 3.3 e C F I u F I [ } } R H D H P H k z z K A H z ! ! F ! _ Z ",
"= r.i  .X.F U b G F _ D _ | { H ! K K C i i b I F H k D { ` D { ",
"= M.! ! ..D %.| ' _ E m D ..E E { U  .U F F b H y j m E v c H ^ ",
"5 v. ...*.*.[ | ` ^ _ G l H Y E | ` } R R / [ { Y Y m [ D m x x ",
"= v.,.{ | @.:.>.*.|  .K A z A K { [ R N W } [ R B n ^ :.Y f T 7 ",
"= f...| | :.} :._ *.I K U I H K { Q ( o.W R R ( R R :.( E f c 7 ",
": i.D H | %.:.>.*.] _ U S p A I ! { ( #.O.( B } ^ R } R ..{ T Y ",
", c.D D >.} <.7.*.*.C A C p J H R E ( O.O.Q R [ n D ( } | [ Y _ ",
"6 x.g ! ,.a ^ <.w g y u ; 3 H H v ( V Q } B V ^ d c ( } ) ~ ,.{ ",
": i._ *.>.^ R 1.y 7 z K < 2 e K E E c c } ( [ W h V W R [ @.| 4 ",
"* i.X.*.*.} } :.^ _ F ! z A ` { w E { ( v m [ Y ^ Y ' D D [ Y s ",
", v.;.5.H | :.%._ j F K ` H z ! ' E ! E D D v Q ! x { [ Y E Y 8 ",
": M.] -.3.4.:.<.1.*.H &.u C D D ..{ W { T [ c ! s [ T $.v T m Y ",
"0 c.&.*.%.1.:.:.| _ I -.A  .E ..[ ! ..T x Y Y T x T Q s D Q ! $.",
"0 a.q _ =.8.<.} ] *.C z K ` | D D { ! D v T s Z D R v ! ! | ! T "
};
