/* XPM */
static char *_673708365392[] = {
/* columns rows colors chars-per-pixel */
"32 32 58 1 ",
"  c black",
". c gray19",
"X c #401000",
"o c #671500",
"O c #601800",
"+ c #6D1A00",
"@ c #7A2400",
"# c #472925",
"$ c #5D332F",
"% c #793633",
"& c #802000",
"* c #802900",
"= c #812A00",
"- c #842D00",
"; c #862F00",
": c #8A3300",
"> c #8D3600",
", c #903900",
"< c #913B00",
"1 c #A02800",
"2 c #8F3733",
"3 c #C03000",
"4 c #9B4500",
"5 c #9C4700",
"6 c #A45100",
"7 c #A55100",
"8 c #AB5900",
"9 c #AF6000",
"0 c #A07800",
"q c #BB7000",
"w c #A74133",
"e c #C47E00",
"r c #C14B33",
"t c #E07070",
"y c #00AA00",
"u c #00D800",
"i c #C78300",
"p c #CA8800",
"a c #CE8E00",
"s c #D59A00",
"d c #D9A100",
"f c #DDA900",
"g c #E1B000",
"h c #E5B700",
"j c #E7BB00",
"k c #EBC300",
"l c #EFCA00",
"z c #F1CD00",
"x c #F2D000",
"c c #F3D200",
"v c #F4D300",
"b c #F5D600",
"n c #F6D800",
"m c #F8DD00",
"M c #FBE300",
"N c #808080",
"B c #C0C0C0",
"V c None",
/* pixels */
"VVVVVVVVVVVVVwVVVVwVVVVVVVVVVVVV",
"VVVVVVVVVVVVw #VV# wVVVVVVVVVVVV",
"VVVVVVVVVVVVwV#  #VwVVVVVVVVVVVV",
"VVVVVVVVVVVVVV rw VVVVVVVVVVVVVV",
"VVVVVVVVVVVVV rww2 VVVVVVVVVVVVV",
"VVVVVVVVVVVVV u%%u VVVVVVVVVVVVV",
"VVVVVVVVVVVVV yrwy VVVVVVVVVVVVV",
"VVVVVVVVVVVVV $  $ VVVVVVVVVVVVV",
"VVVVVVVVVVV  # $$ #  VVVVVVVVVVV",
"VVVVVVVVVV xa<w  w<ab VVVVVVVVVV",
"VVVVVVVVV xs7*%ww%*<gb VVVVVVVVV",
"VVVVVVVV ee87p*ww;p88g8 VVVVVVVV",
"VVVVVVVVV @8fbj57dvg@, VVVVVVVVV",
"VVVVVVVV  ++:zmcznl<++  VVVVVVVV",
"VVVVVVV  7b++hnbnMh=+g7 VVVVVVVV",
"VVVVVV 3 bg7o>fppd-o7gg   VVVVVV",
"VVVVV  3& 7  5;,5;-  7  w% VVVVV",
"VVVVV  3&X V 7k6p,- V %%   VVVVV",
"VVVVV 31X V i96j9i,6 V  w% VVVVV",
"VVVVV 3&XV 5-m99e,i>e VV  VVVVVV",
"VVVV 3&VV je5@m4<j@5ee VVVVVVVVV",
"V    3&X j5e@ @ji@ @55e VVVVVVVV",
" 0NN31X V mj  q55q  je VVVVVVVVV",
" 0..tt  VV    f5qf    VVVVVVVVVV",
" 0 3&XNN VV w fq5f % VVVVVVVVVVV",
" 0 3O...N V w m5qf % VVVVVVVVVVV",
" 03&   00 V w mmff w VVVVVVVVVVV",
"V BO000  V w%      w% VVVVVVVVVV",
"VV     VV ww% VVVV ww% VVVVVVVVV",
"VVVVVVVV ww% VVVVVV ww% VVVVVVVV",
"VVVVVVVV %$$ VVVVVV $$% VVVVVVVV",
"VVVVVVVVV   VVVVVVVV   VVVVVVVVV"
};
