/* XPM */
static char *_673708352922[] = {
/* columns rows colors chars-per-pixel */
"32 32 22 1 ",
"  c black",
". c #2D1A18",
"X c #381F1B",
"o c #202020",
"O c gray19",
"+ c #600000",
"@ c #4F2A25",
"# c #68362F",
"$ c #006000",
"% c #68522F",
"& c gray25",
"* c #505050",
"= c #606060",
"- c gray44",
"; c #800000",
": c #C00000",
"> c #E03800",
", c #C49852",
"< c #808080",
"1 c #A0A0A0",
"2 c white",
"3 c None",
/* pixels */
"333333 3333333333333333333333333",
"33333 1 33333333333333333  33 33",
"3333 =1 3333333333333333 ,,  < 3",
"3333 1= 333333333333333 +%%+&=< ",
"333 +1=+ 3333333333333 :+X+&&&= ",
"333 :%,::  333333333  :+;+@&&&< ",
"33 : +;+;+:   3333  ::+;+X@ &&= ",
"333  .@ +;;+::    ::;:;+ .@  = 3",
"3333 X@ <+;;;+::::;+:++1 X@ 3 33",
"3333 X@ 1<++:;++++;:+;<< X@ 3333",
"3333 X@ <<<+;::;;:;+;111 X@ 3333",
"3333 X@ <<1<<;+::;+<<<<< X@ 3333",
"3333 X@ <111<1<++<<<<<<1 X@ 3333",
"3333 @# 1111111<<<22<<11 @# 3333",
"3333 @# <<<<<<<<<<221<<< @# 3333",
"3333 ## << $11<<<11111<< ## 3333",
"3333 ## << $111<<<<< ><< ## 3333",
"3333 .X <1 1 $11< >< ><1 .X 3333",
"3333 .X << < $<<< >< <<< .X 3333",
"3333 X@ <  < <<<< <<   < X@ 3333",
"3333 X@        <         X@ 3333",
"3333 @#        <         @# 3333",
"3333 #@                  #@ 3333",
"3333 #@ O              O #@ 3333",
"3333 #X Oo     Oo    oOO #X 3333",
"3333 @X *Oo   oOOOo  OO* @X 3333",
"3333 @X O*O  OO***OOoO** @X 3333",
"3333 @X *=O=o=*=*=*=O=*= @X 3333",
"3333 @# =*O*OO**=*=*=*=* @# 3333",
"3333 X@ ================ X@ 3333",
"3333 .@ =-=-=-=-=-=-=-== .@ 3333",
"3333    OOOOOOOOOOOOOOOO    3333"
};
