/* XPM */
static char *_673708382039[] = {
/* columns rows colors chars-per-pixel */
"32 32 37 1 ",
"  c #151000",
". c #161000",
"X c #161100",
"o c #211B05",
"O c #211B06",
"+ c #221B05",
"@ c #221B06",
"# c #221C06",
"$ c #241C06",
"% c #3B2F11",
"& c #3C2F11",
"* c #3C3111",
"= c #3E3111",
"- c #3F3111",
"; c #4C3F14",
": c #4C4014",
"> c #4C4015",
", c #4E4015",
"< c #4F4015",
"1 c #4F4115",
"2 c #504115",
"3 c #504215",
"4 c #514215",
"5 c #524415",
"6 c #6D581F",
"7 c #6D591F",
"8 c #6D5A1F",
"9 c #6F5A1F",
"0 c #705A1F",
"q c #705B1F",
"w c #715B1F",
"e c #836926",
"r c #836A26",
"t c #846A26",
"y c #846B26",
"u c #968449",
"i c #978449",
/* pixels */
" .18e$**7e7=$2e211@.%%@ @7821@@ ",
"+1tiie1=et99titt82,@ @@$2e982,@ ",
".8iy0482384tiit982*%@@18t0987@%O",
".79t3382=295t9932*&@@19iit821@@%",
"@18=222=*=ti43=1=*@@*8tiy04=@%@@",
"@,=11=71*2it422=1,%@,29tte7**@@%",
"@@&,*@,*@298-4881*@%@*=88===7*@%",
"%@@.%@@@@17=3it41@@@@@$=3=*111%@",
"% %@   O@*1=8tt8*@@*6@*7ee=***@@",
"O@%% @@.%@%$79e31%@721=89321*@@O",
"o @@=771*.O@*2=2=@*77**171*,@@@%",
" O@7et981& O@*271&@,*&@.,,.%@@%@",
"O@*et0942, O@,11*%@@@ o  @@..@>%",
"@*34tqt93*% @*1@%@@OO  @@*17,*@.",
"*8t90iit81@  %%%@@@%o @18re==1&*",
"29itqiy94=*&@ @@%%O  .29yi93==1$",
"=90t09948882*%   @  +7tiyyt8271*",
"18999428900t4=,@: ooXeiiy09482**",
"@128821=8tiyte=*&,  *8tyt4288=*%",
" @121**=40wyi41&@%%.134t82=21*@%",
" @,**@&18tii98*@@@%@18432=11*@@%",
"  %&@@@*39993*@%@%%@*288=**<,@%O",
"% .@%@@@7821**%@@@%@*=3221*@@@O ",
"X71.@*1==1===*@OO@ $88482*@@%@OO",
"8e7,$8r81*=8e1@@O%@7tt9e3=,*@@%@",
"t9=$=ti8=*1e82,@@@X8iyq9e1*,&@@*",
"82,Xet03*@*=11@%@*8tqit92=**@,&$",
"1$@#7ue1%@@@&@%%X7tt9382*,@@,*&*",
"&@% *1=@@@@@@%@@*898=*$**@@,,@%@",
"@%OO %@ @%@;@O  182=*%@%@@@%% O@",
"OOO o  %%O   o  ,11**@@@%OO@OO %",
" o o  o    oOOo @*11*@%%@OOOO OO"
};
