/* XPM */
static char *_673708388137[] = {
/* columns rows colors chars-per-pixel */
"32 32 208 2 ",
"   c black",
".  c #311539",
"X  c #450404",
"o  c #470404",
"O  c #570404",
"+  c #5A0303",
"@  c #580503",
"#  c #521109",
"$  c #581A0D",
"%  c #591D0D",
"&  c #6E0201",
"*  c #6F0202",
"=  c #750D06",
"-  c #681003",
";  c #6A1303",
":  c #6C1403",
">  c #7D190A",
",  c #7E1A0B",
"<  c #422C2A",
"1  c #6F5104",
"2  c #6F5106",
"3  c #74590B",
"4  c #7A481D",
"5  c #7D6411",
"6  c #021D5D",
"7  c #3A1B42",
"8  c #3B1E40",
"9  c #381649",
"0  c #021F63",
"q  c #032673",
"w  c #032277",
"e  c #04247E",
"r  c #042D7E",
"t  c #033E7D",
"y  c #401E55",
"u  c #452744",
"i  c #402148",
"p  c #034C7B",
"a  c #034B7F",
"s  c #930100",
"d  c #940202",
"f  c #980C05",
"g  c #9E1609",
"h  c #9D1A08",
"j  c #83230E",
"k  c #8F3816",
"l  c #903B17",
"z  c #A2220D",
"x  c #A3260E",
"c  c #AA3715",
"v  c #96461C",
"b  c #994C1E",
"n  c #B1441B",
"m  c #9F7408",
"M  c #866510",
"N  c #846412",
"B  c #977214",
"V  c #987313",
"C  c #9A7414",
"Z  c #9E7716",
"A  c #A96F07",
"S  c #B36D07",
"D  c #BF6B07",
"F  c #B96C07",
"G  c #A17107",
"H  c #A37308",
"J  c #A07509",
"K  c #A3780D",
"L  c #B17007",
"P  c #AD7211",
"I  c #AE7712",
"U  c #A77A15",
"Y  c #A57C15",
"T  c #A47C16",
"R  c #AB7F11",
"E  c #AD7F15",
"W  c #BC7711",
"Q  c #B37A13",
"!  c #B47B13",
"~  c #B37D11",
"^  c #B67C13",
"/  c #A15723",
"(  c #967B20",
")  c #C16D07",
"_  c #C1720A",
"`  c #C36E2B",
"'  c #C0752E",
"]  c #A98213",
"[  c #A98017",
"{  c #AA8016",
"}  c #AB8117",
"|  c #A3841E",
" . c #BF8215",
".. c #BC8515",
"X. c #B78A18",
"o. c #B68A19",
"O. c #BC9014",
"+. c #BD9115",
"@. c #B9901C",
"#. c #A78520",
"$. c #B89524",
"%. c #B99A23",
"&. c #BA9A22",
"*. c #BE9B27",
"=. c #B49729",
"-. c #BEA228",
";. c #BEA02D",
":. c #DD820A",
">. c #DB8B0C",
",. c #DB950D",
"<. c #D9990E",
"1. c #D99E0E",
"2. c #C28013",
"3. c #F5900D",
"4. c #F9980E",
"5. c #FB990E",
"6. c #DBA011",
"7. c #FEA110",
"8. c #FEA211",
"9. c #FEA812",
"0. c #FEA914",
"q. c #FEA915",
"w. c #FEAA16",
"e. c #FEB018",
"r. c #FEB119",
"t. c #FEB71A",
"y. c #FEB71B",
"u. c #FEB81D",
"i. c #FEB91E",
"p. c #FEBE1E",
"a. c #C9A724",
"s. c #C7AF30",
"d. c #CCB53C",
"f. c #FEBF20",
"g. c #FEBF21",
"h. c #FCC027",
"j. c #FDC628",
"k. c #F8C42C",
"l. c #FDC72C",
"z. c #FCC831",
"x. c #FDC932",
"c. c #FDCE34",
"v. c #F9CD3A",
"b. c #FDD03B",
"n. c #FDD53D",
"m. c #E09F4C",
"M. c #CDBF4D",
"N. c #D3BD45",
"B. c #E1A14F",
"V. c #E6AB58",
"C. c #E7AC59",
"Z. c #ECB664",
"A. c #EDBC69",
"S. c #EFBF6D",
"D. c #FCD644",
"F. c #FDDC47",
"G. c #FCDC4B",
"H. c #F8D94F",
"J. c #FDDD4C",
"K. c #FACA5B",
"L. c #FDDF57",
"P. c #FCD05D",
"I. c #FDD15E",
"U. c #FDE150",
"Y. c #FDE254",
"T. c #FDD560",
"R. c #FDDE66",
"E. c #F1C271",
"W. c #FDE267",
"Q. c #FDE268",
"!. c #FDEB7A",
"~. c #FCEB7B",
"^. c #FDE97E",
"/. c #FDEC7C",
"(. c #042F82",
"). c #043481",
"_. c #043086",
"`. c #063A8D",
"'. c #053F92",
"]. c #054394",
"[. c #2265A9",
"{. c #3172AF",
"}. c #117BC6",
"|. c #277EC0",
" X c #1793DB",
".X c #2690D2",
"XX c #5FA4C8",
"oX c #47ACDC",
"OX c #5CC1E7",
"+X c #60D8FB",
"@X c #F6D080",
"#X c #F9D683",
"$X c #FDDF87",
"%X c #FBDC89",
"&X c #FCDC88",
"*X c #FDDD89",
"=X c #FCDC8A",
"-X c #FDDD8B",
";X c #FCE382",
":X c #FDE483",
">X c #FDE782",
",X c #FDE185",
"<X c #FDE980",
"1X c #FDE089",
"2X c #81ECFB",
"3X c #A3FDF5",
"4X c #CCF0FE",
"5X c None",
/* pixels */
"5X5X5X5X5X5X5X5X5X5X5X5X5X5X5X5X5X5X5X5X5X5X5X5X5X5X5X5X5X5X5X5X",
"5X5X5X5X5X5X5X5X5X5X5X    5X5X5X    5X5X5X5X5X5X5X5X5X5X5X5X5X5X",
"5X5X5X5X5X5X5X5X5X    g.g.      D.g.      5X5X5X5X5X5X5X5X5X5X5X",
"5X5X5X5X5X5X5X    =Xg.O g.[ T $.D.O g.-X=X      5X5X5X5X5X5X5X5X",
"5X5X5X5X5X5X  t.#X& s s -Xo.g.=.x.& s & & f.@Xw.  5X5X5X5X5X5X5X",
"5X5X5X5X5X  q./ z s s s g.T o.[ g.& s s h d & X C.  5X5X5X5X5X5X",
"5X5X5X5X  8.v >Xk.k s s -XT c.Z ^., s n ~.h.s & X 4.  5X5X5X5X5X",
"5X5X5X5X  v /.~ 6.z.& s -XB o.[ c.v c /.m 1.i.& - B.  5X5X5X5X5X",
"5X5X5X5X  c.S 2XoX1.g.s ^.| W.T ^., *XK 2XoX<.e.- :.  5X5X5X5X5X",
"5X5X5X5X  -XS oX{.&.c.& n.( B o.F.x g.m oX{.H e.- 5.  5X5X5X5X5X",
"5X5X5X5X  & -X,.R G.4 & !.U./.W.x.= s -X1.m i.X - :.  5X5X5X5X5X",
"5X5X5X5X  & & r.v.$ & -XD.M.] s.>Xg.& + g.g.X & X 5.  5X5X5X5X5X",
"5X5X5X5X  9.s s & & :XJ.m 9 0 . N.:Xg.* g & s & 8.)   5X5X5X5X5X",
"5X5X5X5X5X  A.t.K.=Xc.%.< ).e `.y a.:XT.b.P.i.e.F   5X5X5X5X5X5X",
"5X5X5X5X5X  2.I C M ^.+.p [.OX|.].O.b.N B Y U  .  5X5X5X5X5X5X5X",
"5X5X5X5X5X  n...W.V I.m w XX4X2X(.J 1XB W.X.n. .  5X5X5X5X5X5X5X",
"5X5X5X5X5X  0.Q i.Y x.3 _.{.3XoXt 1 J.B g.{ i.^   5X5X5X5X5X5X5X",
"5X5X5X5X5X  W ! *.@.,X3 r .X+X Xa 5 ^.[ [ Y E P   5X5X5X5X5X5X5X",
"5X5X5X5X5X  Z.e.H.;XL.+.u '.}.q i d.Q.g.-X=Xi.E.F   5X5X5X5X5X5X",
"5X5X5X5X  5.& n f # c.<X1 7 6 8 ] :Xg.o k = & & 7.)   5X5X5X5X5X",
"5X5X5X5X  o ` >Xu.s % F.^.1 2 -./.g.o ' ^.&Xs & X 4.  5X5X5X5X5X",
"5X5X5X5X  b !.L <.f.s o U.g.1XR.J.o v ^.%.1.u.& ; :.  5X5X5X5X5X",
"5X5X5X5X  Y._ 2XoX<.g.& /.N N B J.j l.m 2XoX,.q.: 4.      5X5X5X",
"5X5X5X5X  -XD oX{.G g.& J.B W.;./.l l.m oX{.A 0.: :.          5X",
"5X5X5X5X  & -X>.A p.& s ^.T o.o.D., s -X1.G r.& : m.            ",
"5X5X5X5X  3.s 9.r.& s & $XT c.[ >X> s s g.i.& & X 4.            ",
"5X5X5X5X5X  4.& & s s & g.o.o.[ j.d s s s & s & B.              ",
"5X5X5X5X5X5X  8.e.s & & -X[ g.[ g.& s & & u.S.V.              5X",
"5X5X5X5X5X5X5X    y.f.@ j.} T #.D.O g.g.%X                5X5X5X",
"5X5X5X5X5X5X5X5X5X    f.b.      D.g.                  5X5X5X5X5X",
"5X5X5X5X5X5X5X5X5X5X5X    5X5X                    5X5X5X5X5X5X5X",
"5X5X5X5X5X5X5X5X5X5X5X5X5X5X5X5X5X5X5X5X5X5X5X5X5X5X5X5X5X5X5X5X"
};
