/* XPM */
static char *_3a9101cf7ed4b95c82cf34c040535a5gv9R97M0eK1N400y[] = {
/* columns rows colors chars-per-pixel */
"32 32 212 2 ",
"   c None",
".  c black",
"X  c #000200",
"o  c #010301",
"O  c #000002",
"+  c #010103",
"@  c #020002",
"#  c #020103",
"$  c #010302",
"%  c gray1",
"&  c #010701",
"*  c #030107",
"=  c #040107",
"-  c #060107",
";  c #050903",
":  c #050D03",
">  c #07010B",
",  c #07020C",
"<  c #09020E",
"1  c #081305",
"2  c #091006",
"3  c #091606",
"4  c #0A1A06",
"5  c #090111",
"6  c #0A0311",
"7  c #0C0212",
"8  c #0D0214",
"9  c #0D0416",
"0  c #0F0418",
"q  c #0F041A",
"w  c #100C12",
"e  c #10041A",
"r  c #11051B",
"t  c #10041C",
"y  c #12041C",
"u  c #13051F",
"i  c #14051F",
"p  c #12270F",
"a  c #15350F",
"s  c #1A241A",
"d  c #153610",
"f  c #1A3115",
"g  c #173C10",
"h  c #183E12",
"j  c #150521",
"k  c #140622",
"l  c #160624",
"z  c #180626",
"x  c #190626",
"c  c #190729",
"v  c #1A0929",
"b  c #1C092B",
"n  c #1C082C",
"m  c #1D082E",
"M  c #1E092F",
"N  c #1F0A30",
"B  c #23172F",
"V  c #200B31",
"C  c #220B31",
"Z  c #230A34",
"A  c #230A36",
"S  c #240B35",
"D  c #240A36",
"F  c #260D37",
"G  c #260E36",
"H  c #260D39",
"J  c #270D39",
"K  c #280F3B",
"L  c #290E3E",
"P  c #2A0E3E",
"I  c #2A0F3F",
"U  c #261434",
"Y  c #291139",
"T  c #2D143E",
"R  c #253723",
"E  c #2B3D29",
"W  c #2E2438",
"Q  c #323C33",
"!  c #1E4A16",
"~  c #25541C",
"^  c #30442E",
"/  c #295420",
"(  c #2D5723",
")  c #33592B",
"_  c #3A612F",
"`  c #3E6A32",
"'  c #487A3A",
"]  c #2B1040",
"[  c #2D1042",
"{  c #2F1044",
"}  c #2F1244",
"|  c #301044",
" . c #311246",
".. c #321347",
"X. c #331349",
"o. c #35134B",
"O. c #321648",
"+. c #34144A",
"@. c #35144A",
"#. c #36164C",
"$. c #38164E",
"%. c #3A1B4F",
"&. c #3A1650",
"*. c #3B1751",
"=. c #3A1753",
"-. c #3B1854",
";. c #3E1854",
":. c #3E1856",
">. c #401B57",
",. c #411B59",
"<. c #441C5A",
"1. c #451C5C",
"2. c #451D5F",
"3. c #4A1D61",
"4. c #491D63",
"5. c #4A1F65",
"6. c #4B2066",
"7. c #4C2066",
"8. c #4D2167",
"9. c #4F2167",
"0. c #502268",
"q. c #51226C",
"w. c #542A6A",
"e. c #542470",
"r. c #572571",
"t. c #572670",
"y. c #582674",
"u. c #592676",
"i. c #5B2676",
"p. c #5C2B75",
"a. c #5C2977",
"s. c #5D2878",
"d. c #5E2979",
"f. c #5F2E78",
"g. c #61297B",
"h. c #612C7A",
"j. c #622A7C",
"k. c #642A7C",
"l. c #566850",
"z. c #726874",
"x. c #518D43",
"c. c #63A551",
"v. c #75A551",
"b. c #739060",
"n. c #632C80",
"m. c #6A2E86",
"M. c #6E2F89",
"N. c #6D3086",
"B. c #6F328C",
"V. c #74338F",
"C. c #753391",
"Z. c #763492",
"A. c #773593",
"S. c #7D3797",
"D. c #7E3898",
"F. c #0047B2",
"G. c #6F4581",
"H. c #005BD6",
"J. c #81399B",
"K. c #813C9E",
"L. c #833CA0",
"P. c #8B3EA4",
"I. c #8C3FA5",
"U. c #9141AB",
"Y. c #9242AC",
"T. c #9443AF",
"R. c #9549AB",
"E. c #9844B0",
"W. c #9947B1",
"Q. c #9C48B4",
"!. c #9F4AB4",
"~. c #A14AB6",
"^. c #A54DBB",
"/. c #A44EBC",
"(. c #A74EBE",
"). c #A94FBF",
"_. c #AD52C4",
"`. c #AF52C6",
"'. c #AE54C4",
"]. c #B057C7",
"[. c #B257C9",
"{. c #B559C9",
"}. c #B759CB",
"|. c #BB5ACC",
" X c #BE5DD3",
".X c #BF5ED4",
"XX c #C067D3",
"oX c #C361D5",
"OX c #C462D6",
"+X c #C664D8",
"@X c #C765D9",
"#X c #C866DA",
"$X c #CE67DD",
"%X c #CE69DD",
"&X c #D06AE0",
"*X c #D16CE0",
"=X c #D370E2",
"-X c #D671E5",
";X c #E17CEA",
":X c #0788EB",
">X c #34CCFE",
",X c #5FDBFF",
"<X c #61DCFF",
"1X c #93908B",
"2X c #B282B6",
"3X c #E380EC",
"4X c #E482EC",
"5X c #EE95F1",
"6X c #F7B2F8",
"7X c #B9EEFF",
"8X c #F1F1F1",
"9X c white",
/* pixels */
"                      . .               .       . . .           ",
"                    . N.K..       . . . K..   . Z.;Xo..         ",
"                  . S.l .   . . . I m l N..     . X.=Xv .       ",
"          .     . 6.`.m . .  .C.>.#X'.S..         . Z ~..       ",
"        . K.. . l =.#XI . T.&XI . =.7..           . 4.+X.       ",
"        . N.l m I l >.-X#X{ x i.m j . .   . . . . 7.}.7..       ",
"          . S.'.+X,. XT 3Xq.o.+X[ ,X8Xj . v r.C.{..X{ .         ",
"    . .     . 7.=.. >Xj  .C T.S.k =.[ H.[.*X3XS.>.m .           ",
"  . ].L..     . . 7X9X>XF.J.a.5XI 0 { .X#.F d.F . .             ",
". $Xk.j I .     . a <X:X[ W.o.#XY.H e c v j . .                 ",
". }.F . .     . s.I ! [ 6Xm.A.j.8 =.U.k.2.I .                   ",
". _.D .       . ^.W.+X`.oXD.`.,._._.1Xv.XXE.4.. .               ",
". {. ..     . Q.j.!.o.&X=.~.i.( l.s ( a.S ,.W.Z.H .   .         ",
"  . (.o.. . E.N 2.I }.W.) F E E . . 4 ( #.b U.#.q.2.. P.. .     ",
"  . r.%XK.(.7.l S.q.q.5.OX' ' : . . o f q.i q.e C A.C 9 =X=..   ",
"    . I oXM.v > v v e x =..Xx.. . . . D.5 c F j . k U.q.j 4X[ . ",
"      . I Z > . . 9 N m.Z ,.c.% . . w.V.t H < .   . v q.4.u ].. ",
"        . . .     . < I.#.2.E._ o : C >.* k . .     . > i . .   ",
"                    . :.j.N M.b.& o O.j % 0 - b .     . .       ",
"                . . $.H 7.l u.z.3 . F - % , e I .               ",
"              . W.n.I 5 H 5  .2X4 . Y . % * F 9 .               ",
"                . W.j > 0 - T R.d o U . . , N 5 % .             ",
"                . n.6 < , > . T.~ o B 9 % . j < * .             ",
"                . $.9 . % - u D.Q : w ,.. > > > . . .           ",
"                . ] e . . - k.y.f.g 2 j.c , % , . . . . .       ",
"                . < e j . e H Z.B.R g G.1.c % . H u q.i.u .     ",
"              . . . 8 O.l e l j.[.#.~ ^ 5.m 5 . x ] l % . . .   ",
"            . x ).o.l j #.e 5 j.9.#.W p T . > > 9.Z P.q . .     ",
"          . u r.e 6.<.5 m { C =.j k K =.Z . . . i.5 X.Z .       ",
"        . e O.. . 9 S 5 . . > %., 9 F ;.n.N % % l % . .         ",
"          . .     . . . . . . u < . . . 8 o., . . .             ",
"                            . . . . . . . . . .                 "
};
