/* XPM */
static char *c2b53a03e46542c2d6103974ceb631c3Iyex6wV9abRhHZqk[] = {
/* columns rows colors chars-per-pixel */
"32 32 228 2 ",
"   c None",
".  c black",
"X  c #000001",
"o  c #010101",
"O  c #000200",
"+  c #000201",
"@  c #000002",
"#  c #010202",
"$  c #000203",
"%  c #010403",
"&  c #010602",
"*  c #020406",
"=  c #030406",
"-  c #040607",
";  c #000901",
":  c #020D03",
">  c #020C04",
",  c #020E04",
"<  c #020F06",
"1  c #020608",
"2  c #060608",
"3  c #060708",
"4  c #070709",
"5  c #07090C",
"6  c #080A0D",
"7  c #090C0E",
"8  c #080C0F",
"9  c #0A0C0F",
"0  c #021006",
"q  c #081D0D",
"w  c #0A0E12",
"e  c #0D0E12",
"r  c #0C0E13",
"t  c #0D0F14",
"y  c #0A1213",
"u  c #0E1015",
"i  c #0F1217",
"p  c #0E1218",
"a  c #0F1319",
"s  c #0F1419",
"d  c #10141A",
"f  c #12151B",
"g  c #13171D",
"h  c #13181F",
"j  c #09280C",
"k  c #09280D",
"l  c #092C0D",
"z  c #092D0E",
"x  c #0C2713",
"c  c #0E231A",
"v  c #0D3A13",
"b  c #141920",
"n  c #151922",
"m  c #151A22",
"M  c #171B23",
"N  c #181D24",
"B  c #181E27",
"V  c #191E28",
"C  c #191F28",
"Z  c #1B202A",
"A  c #1E232D",
"S  c #1F242E",
"D  c #1E242F",
"F  c #153723",
"G  c #1F2531",
"H  c #1D2C33",
"J  c #202732",
"K  c #202832",
"L  c #232935",
"P  c #242936",
"I  c #242C39",
"U  c #242D39",
"Y  c #242E39",
"T  c #272E3B",
"R  c #282F3E",
"E  c #124319",
"W  c #14471D",
"Q  c #177210",
"!  c #194029",
"~  c #1B4E29",
"^  c #195224",
"/  c #1F4C32",
"(  c #234C3E",
")  c #236635",
"_  c #256E39",
"`  c #293140",
"'  c #293240",
"]  c #293340",
"[  c #2A3241",
"{  c #2A3544",
"}  c #223C40",
"|  c #2E3648",
" . c #2E3748",
".. c #2F3949",
"X. c #2F3A49",
"o. c #2F3A4C",
"O. c #313B4E",
"+. c #323B4F",
"@. c #333E50",
"#. c #354055",
"$. c #364156",
"%. c #364359",
"&. c #394459",
"*. c #3A445B",
"=. c #3B4762",
"-. c #3B4862",
";. c #3E4865",
":. c #3E4966",
">. c #3E4E69",
",. c #41506C",
"<. c #43506E",
"1. c #43526E",
"2. c #44526F",
"3. c #445272",
"4. c #455574",
"5. c #475675",
"6. c #485877",
"7. c #495978",
"8. c #4B5B7A",
"9. c #4C5C7B",
"0. c #4B5C7D",
"q. c #27981A",
"w. c #288433",
"e. c #3BAE4E",
"r. c #3AB55B",
"t. c #48C05F",
"y. c #6EDF44",
"u. c #44D16E",
"i. c #4F6281",
"p. c #4E6083",
"a. c #4F6284",
"s. c #506386",
"d. c #53688C",
"f. c #55698D",
"g. c #586C90",
"h. c #596E92",
"j. c #5B6F93",
"k. c #5C7298",
"l. c #5F7798",
"z. c #5F759B",
"x. c #62779B",
"c. c #627B9E",
"v. c #657BA0",
"b. c #667DA2",
"n. c #65839E",
"m. c #50AA8A",
"M. c #6981A5",
"N. c #6B83A6",
"B. c #6E87A9",
"V. c #6E89AC",
"C. c #718CA9",
"Z. c #718AAC",
"A. c #728CAD",
"S. c #7590B3",
"D. c #7890B3",
"F. c #7893B3",
"G. c #7A92B4",
"H. c #7A93B4",
"J. c #7B98B8",
"K. c #7D99B9",
"L. c #7E99B8",
"P. c #5FC293",
"I. c #58E184",
"U. c #6FCEA2",
"Y. c #78EAA0",
"T. c #809CBC",
"R. c #869FBE",
"E. c #83A0B9",
"W. c #9EF0BE",
"Q. c #C9F883",
"!. c #E2FC9F",
"~. c #87A2C0",
"^. c #8AA5C2",
"/. c #92ACC8",
"(. c #81B7CC",
"). c #98B0CD",
"_. c #98B1CD",
"`. c #99B3CE",
"'. c #9BB4CD",
"]. c #A0B9D1",
"[. c #A5BDD2",
"{. c #A6BDD5",
"}. c #84CAC2",
"|. c #AAC1D6",
" X c #ADC4DA",
".X c #B1C7DB",
"XX c #B5CCDE",
"oX c #B7CDDF",
"OX c #B9CFDF",
"+X c #ADE5D8",
"@X c #BACFE0",
"#X c #BCCFE1",
"$X c #BDD1E1",
"%X c #BED2E2",
"&X c #C0D4E3",
"*X c #C2D5E3",
"=X c #C4D6E5",
"-X c #C8D9E7",
";X c #C8D8E8",
":X c #CCDAE9",
">X c #D0DEEB",
",X c #D4E0EB",
"<X c #D4E1EC",
"1X c #D5E1ED",
"2X c #D7E3ED",
"3X c #D6E2EE",
"4X c #D8E5EE",
"5X c #DAE6EF",
"6X c #D1ECEE",
"7X c #DFEAF1",
"8X c #FDFFED",
"9X c #E0EAF2",
"0X c #E2EBF2",
"qX c #E4ECF3",
"wX c #E5EDF3",
"eX c #E5EEF4",
"rX c #E7EFF5",
"tX c #EAF0F6",
"yX c #EBF1F6",
"uX c #EDF2F7",
"iX c #EEF2F7",
"pX c #F0F4F8",
"aX c #F2F6F9",
"sX c #F3F7FA",
"dX c #F5F8FA",
"fX c #F6F8FB",
"gX c #FAFCFD",
"hX c white",
/* pixels */
"                      . .               .       . . .           ",
"                    . ~.|..       . . . |..   . '.aX=..         ",
"                  . '.M .   . . . O.G M ~..     . *.aXC .       ",
"          .     . z.,XS . . #.'.0.qX1X]..         . I =X.       ",
"        . |.. . M 3.rXO.$ $XiX .. 4.k..           . g.wX.       ",
"        . ~.M G O.N 0.aXqX@.C A.A M . .   . . . . j.2Xz..       ",
"          . ].,XqX0.7XO.fXc.;.qX@.Q.8XM . Z M._.1X9X%..         ",
"    . .     . k.4.. q.n %.P @X].M 4.@.e.1XiXfX].0.K .           ",
"  . 1X X.     . . Q 8XQ.w.{.A.gXO.u #.7X;.R S.R . .             ",
". tXK.h ...     . k !.y.@.@X;.rXoX' u Z Z b . .                 ",
". 5XR . .     . S...v @.hXR.'.T.e 1.oXT.d....                   ",
". :XU .       . -X%XwX1XqX[.1Xi.>X>X+Xt.9X%Xf.. .               ",
". 2X&..     . %XJ.*X;.uX6.*XA.E.m.c ^ C.U i.%X_.' .   .         ",
"  . :X;.. . %XG d...2X%Xr.~ ) ! . . 0 P.-.A XX>.M.s.. .X. .     ",
"  . N.tX|.:Xz.B ].v.b.j.wXI.u., . . . x M.a x.a K '.T t aX5..   ",
"    . @.qX^.C 2 Z Z a C 1.9XY.. . . . [.8 Z { f . M .Xb.f fX@.. ",
"      . O.T * . . e J R.U p.W.. . . n._.a R 5 .   . S c.f.f 1X. ",
"        . . .     . 5 .X1.s.%X_ . & P 0.* b . .     . 3 f . .   ",
"                    . 8.D.K ^.U.. . -.g * u * A .     . .       ",
"                . . 1.' z.M A.}.0 . R 2 . 5 s O..               ",
"              . %XK. .8 ' w &.6X0 . ] . * * R e .               ",
"                . %XN 2 u 2 O.OXk . U . . 5 P 8 * .             ",
"                . L.8 4 6 = $ %XW . H e . $ h 5 * .             ",
"                . 1.e = 2 $ d ].( ; y 0.. 2 1 5 . . .           ",
"                . @.a . . . K.B.F.l , H.Z 6 . 2 . . . . .       ",
"                . 6 a f . f ' _./.F l (.s.Z $ . ' a b.A.d .     ",
"              . . . e %.M s N T.1X>.E / z.S w . C  .C . . . .   ",
"            . N :X*.M b =.a 8 S.b.;.} q ... 6 1 x.U .Xt . .     ",
"          . a B.f j.i.8 K #.L 7.h M  .1.U . . . V.w *.U .       ",
"        . s *.. . t I 8 . . 3 3.3 u R 7.T.G . . M $ . .         ",
"          . .     . . . . . . u 6 . . . w =.5 . . .             ",
"                            . . . . . . . . . .                 "
};
