/* XPM */
static char *result[] = {
/* columns rows colors chars-per-pixel */
"32 32 16 1 ",
"  c black",
". c #134545",
"X c #1D6A6A",
"o c #E07000",
"O c #FFC000",
"+ c yellow",
"@ c #CA8F72",
"# c #289595",
"$ c #579595",
"% c #36C8C8",
"& c #74C8C8",
"* c #45FFFF",
"= c #FFB691",
"- c #FFD3AF",
"; c #95FFFF",
": c None",
/* pixels */
":::::::::::::::    :::::::::::::",
":::::::::::::: %%XX  :::::::::::",
"::::::::::::: %##%**X ::::::::::",
"::::::::::::: %#X.  +O :::::::::",
":::::::::::: %#X. : Oo :::::::::",
":::::::::::: %##X. :  ::::::::::",
"::::::::::: %####X.  % :::::::::",
"::::::::::: **%%##X..% :::::::::",
":::::::::: *%%###X..% ::::::::::",
"::::::: : %###XX...%% ::::::::::",
":::::: % ##XX....%%  :::::::::::",
"::::::: %*****%%%  ::  :::::::::",
"::::::::     -@=@    .$ ::::::::",
":::::::: X$. -=..  X$$X$ :::::::",
"::::::: X$X.#..X#X$XX;$X$ ::::::",
"::::::: ;X..%%O%%X.;$X;$. ::::::",
"::::::: ;.$.%#.%#..X;$.;$ ::::::",
":::::::: $.X.#O#X. .X;..$ ::::::",
"::::::::: X$.X.X..  .X$. :::::::",
":::::::: &$.......   ... :::::::",
"::::::: ;&$.#&#X$#$  ;&$ :::::::",
"::::::: ;$.;%;#.&#&.  &$ :::::::",
":::::: =@$.&%;X.;%;X. $=@ ::::::",
":::::: =@ ;#%&X ;%;#. $=@ ::::::",
":::::::   &%&#X ;%%;X.   :::::::",
"::::::::: &%&X. #;%&#X.    :::::",
":::::::::: ##&.  ;%&#X.      :::",
":::::::: : XX&.  &#%&X        ::",
"::::::: O   ...  X&X..  O      :",
"::::::: *  ###    ..##..*     ::",
":::::::: *###.      .##*     :::",
":::::::::       ::::       :::::"
};
