/* XPM */
static char *fbb7218fd6e945ff92f6d7d137747244ZYky1QYBh57X5Mno[] = {
/* columns rows colors chars-per-pixel */
"32 48 23 1 ",
"  c None",
". c black",
"X c #0E041B",
"o c #170D20",
"O c #2C1B3A",
"+ c #123427",
"@ c #20582F",
"# c #43255A",
"$ c #7C227C",
"% c #623878",
"& c #237B4B",
"* c #575561",
"= c #842785",
"- c #8F2E93",
"; c #9B34A4",
": c #AB3EB4",
"> c #8D4A9F",
", c #B176B8",
"< c #01C08D",
"1 c #85888E",
"2 c #86888E",
"3 c #FFA1FC",
"4 c #C1C1C1",
/* pixels */
"          ......                ",
"          .%>%OO....            ",
"          .44#%##%>,..          ",
"          .2*4###$$X>O..        ",
"           .2.24#:3$O%>,.       ",
"            .*.42#;-#O...       ",
"     ..  ... ....4%#O.          ",
"    .%...%>..*..42#OO.          ",
"   .O.oO%O..1.41O#%%#O.         ",
"  .>oO,%#..441#%#OXXO%X.. ..    ",
"  .#O>$$o.#%%#%Oo++oXX.>..,...  ",
"  .%%$3=O.......X@&oX.%O.>O.XX. ",
" .,>#::##%>.X. .X++o.Ooo#O.XXXX.",
".>%###o%Oo.XOo..O@&.%oO>%O...Xo.",
".%#%1.1#o.@@oOo.X++.#O%$$###Xoo.",
".#%o.1#...o++oX.O@+.##$3=%OXXoX.",
"...14O..  .O@&o.X+.#%%;:%OXXOo. ",
"  .OO.    .o++X+@.O%%%##4#XOo.  ",
"  ...  .  .O@&+++.%%>#41#X...   ",
"     ..o...o+++@&.,>%14%X.o.    ",
"    .Xoo.O.X+@&&@.>14#...Xoo.   ",
"   .OoXo.#O@&@@@&.....O.XooXO.  ",
"  .OXXXoX.#&<&@&<<&O%Oo.oXoXXO. ",
" .#X..OXX.%&&<&<&&%>OX.XOXOXXOo.",
" ... .#..Xo#@&@&@#OoXo...XO...#.",
"  ... . .oXO@++@#%oXooO. .#.. ..",
" .24.   .O.X+@@+OOXoXO#o. .42.  ",
"..O.   .XX.#&<<&%Ooo.oOo....OX. ",
".4X....OoX.X@@@@#oO..XoooX..X4. ",
".2o4o4oo...X&<&+%oX..X#oO4o4o2. ",
".%O2X2.X.Oo+@@@%OooO..%#%2X2O%. ",
"...%.%...#O+&<+#o#%#Oo...%.%... ",
"   .... .o#@@@#%O%#OO........   ",
"       .Xo#&<<%%o#%Oo..oXooX.   ",
"  ..  ..%oO@@@##o###O.oXXXooX.  ",
" .X. ..>#o#&<<%#XO%%O.X..oXoOX. ",
".X.  .##OO#@@@#%oX>%#..  .XooO. ",
".o. .>%O##o+++O#oX%#%O.....ooo. ",
".X..>%##>OX+@@OOO.#O%>.....OoO. ",
".o.#%%#%#...+++#o.O#>%..o..oOo. ",
".X.,>#Oo..o.+@@O#o.>#OOoOo.OOX. ",
" .X.XXooooX..+++Oo.,%#oOoo.Oo...",
"  .X...XoOX...+@@O.....ooo......",
"   .XXX.oOo....o++OoOo..oOO.....",
"    ....XOOX.....o++++..O##O....",
"   .2.2O2*#O...........2#2O2... ",
"  .4*4*4*.............4*4*4*..  ",
"  .........          ........   "
};
