/* XPM */
static char *result[] = {
/* columns rows colors chars-per-pixel */
"32 48 17 1 ",
"  c black",
". c #252046",
"X c #4E5372",
"o c #343C84",
"O c #3C59AC",
"+ c #767784",
"@ c #3980B1",
"# c #7795BB",
"$ c #329AD6",
"% c #4ABBF0",
"& c #6ADDFA",
"* c #AEB3B8",
"= c #AEB4B8",
"- c #99CDE3",
"; c #E5F0F3",
": c #F3F3F3",
"> c None",
/* pixels */
">>>>>>>>>>      >>>>>>>>>>>>>>>>",
">>>>>>>>>> $%$OO    >>>>>>>>>>>>",
">>>>>>>>>> ::@$@@$%&  >>>>>>>>>>",
">>>>>>>>>> =+:@@@O..%O  >>>>>>>>",
">>>>>>>>>>> = =:@$;oO$%& >>>>>>>",
">>>>>>>>>>>> + :=@@O@O   >>>>>>>",
">>>>>  >>   >    :$@O >>>>>>>>>>",
">>>> $   $%  +  :=@OO >>>>>>>>>>",
">>> O oO$O  = :=O@$$@O >>>>>>>>>",
">> %oO&$@  ::=@$@O..O$.  >  >>>>",
">> @O%..o @$$@$OoXXo.. %  &   >>",
">> $$.;oO       .#-o. $O %O .. >",
"> &%@$$@@$% . > .XXo Ooo@O .... ",
" %$@@@o$Oo .Oo  O#- $oO%$O   .o ",
" $@$= =@o ##oOo .XX @O$..@@@.oo ",
" @$o =@   oXXo. O#X @@.;o$O..o. ",
"   =:O  >> O#-o .X @$$@$$O..Oo >",
">> OO >>>> oXX.X# O$$$@@:@.Oo >>",
">>   >>  > O#-XXX $$%@:=@.   >>>",
">>>>>  o   oXXX#- &%$=:$. o >>>>",
">>>> .oo O .X#--# %*:@   .oo >>>",
">>> Oo.o @O#-###-     O .oo.O >>",
">> O...o. @-;-#-;;-O$Oo o.o..O >",
"> @.  O.. $--;-;--$%O. .O.O..Oo ",
">   > @  .o@#-#-#@Oo.o   .O   @ ",
">>   > > o.O#XX#@$o.ooO > @  >  ",
"> =: >>> O .X##XOO.o.O@o > := >>",
"  O >>> .. @-;;-$Ooo oOo    O. >",
" :.    Oo. .####@oO  .ooo.  .: >",
" =o:o:oo   .-;-X$o.  .@oO:o:o= >",
" $O=.= . OoX###$OooO  $@$=.=O$ >",
"   $ $   @OX-;X@o@$@Oo   $ $   >",
">>>    > o@###@$O$@OO        >>>",
">>>>>>> .o@-;;$$o@$Oo  o.oo. >>>",
">>  >>  $oO###@@o@@@O o...oo. >>",
"> . >  %@o@-;;$@.O$$O .  o.oO. >",
" . >> @@OO@###@$o.%$@  >> .ooO >",
" o > %$O@@oXXXO@o.$@$O     ooo >",
" .  %$@@%O.X##OOO @O$%     OoO >",
" o @$$@$@   XXX@o O@%$  o  oOo >",
" . &%@Oo  o X##O@o %@OOoOo OO. >",
"> . ..oooo.  XXXOo &$@oOoo Oo   ",
">> .   .oO.   X##O     ooo      ",
">>> ... oOo    oXXOoOo  oOO     ",
">>>>    .OO.     oXXXX  O@@O    ",
">>> = =O=+@O           =@=O=   >",
">> :+:+:+             :+:+:+  >>",
">>         >>>>>>>>>>        >>>"
};
