/* XPM */
static char *a70e59a97f474d1ac8cb2283a8384b47LbRMpWCfjAiVhwuq[] = {
/* columns rows colors chars-per-pixel */
"32 48 22 1 ",
"  c None",
". c black",
"X c #221C12",
"o c #382D1C",
"O c #471906",
"+ c #192E4B",
"@ c #23375F",
"# c #4D235F",
"$ c gray29",
"% c #736553",
"& c #813516",
"* c #AD6A07",
"= c #917E64",
"- c #81727C",
"; c #CD900D",
": c #FEC83E",
"> c #793580",
", c #AE42A8",
"< c #BBA88D",
"1 c #AAAAAA",
"2 c #E0DDDF",
"3 c white",
/* pixels */
"            .... .  .           ",
"  .     ....<<<=.= .<.....      ",
" .<. ...,,><=...=.  .=,>,,..    ",
" .=..,,,>##>##>..    .>,+@,,.   ",
" .,,>>#>#3>,,>,,.    .,>,++@,.  ",
" .>,,>,,,>,>#,,,>.   .,>+,++@,. ",
"  .<.<.,>,.#>,,,,.  .>#>++,@+,. ",
"   .%..<.<.,,>,,,>..>#++>+@,+@,.",
"    ......,>>#>,,,>.#..OO++,@+,.",
"   .<.<.#>##.>##>,>>.*;;*O++,+>.",
"   .,,>##...##>##>>>.&*;:*O+>@+,",
"    ..... ...>####>.&O&*::.@@>@>",
"  .      .OO..####.O*&&&;:;.@>@>",
" .<..   .&&O*.OO..&O*O&&*;*..@>.",
".,..=. .&*&O*O&*&O*O&*.&O..#..=.",
".#<#. .&*&.*;&*;*&;&O&*####>. . ",
".>,.  .&&.*&*;&*&;*&&&&.>,>#>.  ",
".>#<. .O..&O;:;;;:;*&&O.,,,#>.  ",
".#>#....#.OO:::::::**&&O>,,>#.  ",
".>#.>,,>>##O;::;::;***&O.,>>#.  ",
" .##,,,,>>#.*;&**&&;*&OO.>>,>#. ",
" .##>>,,,>. .&*;:;*&&O*& .,,,>. ",
"  .##>>>>.   .OO&&&OO*&O.>,,,,. ",
"   ...... .....*;:;;*&O>>>>,,>. ",
"   ...21...1.&OOO&&OOO>,,>>>..  ",
" ..121--..-..........>,,,,......",
".21--$oooooooooooXoXX.,#,#.XoXo-",
" ..11-$$..-...........#>#.......",
"   ...2-.,.1.>#>#*;*#.#..#>>.   ",
"      .1.,,.>#>>>;&;##.#>>,,>.  ",
"      ..,,,>>,>#.:;:##.>>,,,,.  ",
"      .,,,>>,>>..#:;:#.>>,,,,,. ",
"     .>,,,>,>>. .>;&;#.>>,,,,,. ",
"     .>,,>,>>.#..#;*;.>.>>,,,,. ",
"      .>>,>#####.>*#*.,##>>,,>. ",
"       ...##>>#>.####.>>##>>>.  ",
"          ...#>,>.##..,>#....   ",
"            ..>>>.#..,.,>>.     ",
"        ....#.,>,.. .<.>.<.     ",
"     ...>,>##.>,.<.  ..<..      ",
"   ..,,>,###.,>,..     .        ",
"  .,,>.......<.>.               ",
" .,>..       . .<.              ",
" .,.            .               ",
" .,.                            ",
" .>.       ................     ",
"  .>.   ......................  ",
"   .      ..................    "
};
