/* XPM */
static char *c860239494784f9df7b2b99cfa4f8da3pNiz37yXSPoXheep[] = {
/* columns rows colors chars-per-pixel */
"32 48 21 1 ",
"  c None",
". c black",
"X c #221C12",
"o c #382D1C",
"O c #471906",
"+ c #402702",
"@ c #55214E",
"# c gray29",
"$ c #736553",
"% c #813516",
"& c #AD6A07",
"* c #862F41",
"= c #C33C45",
"- c #917E64",
"; c #81727C",
": c #CD900D",
"> c #FEC83E",
", c #BBA88D",
"< c #AAAAAA",
"1 c #E0DDDF",
"2 c white",
/* pixels */
"            .... .  .           ",
"  .     ....,,,-.- .,.....      ",
" .,. ...==*,-...-.  .-=*==..    ",
" .-..===*@@*@@*..    .*=++==.   ",
" .==**@*@2*==*==.    .=*=+++=.  ",
" .*==*===*=*@===*.   .=*+=+++=. ",
"  .,.,.=*=.@*====.  .*@*++=++=. ",
"   .$..,.,.==*===*..*@++*++=++=.",
"    ......=**@*===*.@..OO++=++=.",
"   .,.,.@*@@.*@@*=**.&::&O++=+*.",
"   .==*@@...@@*@@***.%&:>&O+*++=",
"    ..... ...*@@@@*.%O%&>>.++*+*",
"  .      .OO..@@@@.O&%%%:>:.+*+*",
" .,..   .%%O&.OO..%O&O%%&:&..+*.",
".=..-. .%&%O&O%&%O&O%&.%O..@..-.",
".@,@. .%&%.&:%&:&%:%O%&@@@@*. . ",
".*=.  .%%.&%&:%&%:&%%%%.*=*@*.  ",
".*@,. .O..%O:>:::>:&%%O.===@*.  ",
".@*@....@.OO>>>>>>>&&%%O*==*@.  ",
".*@.*==**@@O:>>:>>:&&&%O.=**@.  ",
" .@@====**@.&:%&&%%:&%OO.**=*@. ",
" .@@**===*. .%&:>:&%%O&% .===*. ",
"  .@@****.   .OO%%%OO&%O.*====. ",
"   ...... .....&:>::&%O****==*. ",
"   ...1<...<.%OOO%%OOO*==***..  ",
" ..<1<;;..;..........*====......",
".1<;;#oooooooooooXoXX.=@=@.XoXo;",
" ..<<;##..;...........@*@.......",
"   ...1;.=.<.*@*@&:&@.@..@**.   ",
"      .<.==.*@***:%:@@.@**==*.  ",
"      ..===**=*@.>:>@@.**====.  ",
"      .===**=**..@>:>@.**=====. ",
"     .*===*=**. .*:%:@.**=====. ",
"     .*==*=**.@..@:&:.*.**====. ",
"      .**=*@@@@@.*&@&.=@@**==*. ",
"       ...@@**@*.@@@@.**@@***.  ",
"          ...@*=*.@@..=*@....   ",
"            ..***.@..=.=**.     ",
"        ....@.=*=.. .,.*.,.     ",
"     ...*=*@@.*=.,.  ..,..      ",
"   ..==*=@@@.=*=..     .        ",
"  .==*.......,.*.               ",
" .=*..       . .,.              ",
" .=.            .               ",
" .=.                            ",
" .*.       ................     ",
"  .*.   ......................  ",
"   .      ..................    "
};
